<svg width="159" height="47" viewBox="0 0 159 47" fill="none" xmlns="http://www.w3.org/2000/svg">
<path d="M55.1748 36.6748C54.9893 36.6309 54.8281 36.5698 54.6914 36.4917C54.5596 36.4087 54.4521 36.3159 54.3691 36.2134C54.2861 36.1108 54.2251 36.0034 54.186 35.8911C54.147 35.7739 54.1274 35.6592 54.1274 35.5469C54.1274 35.3027 54.1958 35.1147 54.3325 34.9829C54.4692 34.8462 54.6401 34.7778 54.8452 34.7778C54.9819 34.7778 55.0991 34.8145 55.1968 34.8877C55.2944 34.9561 55.375 35.0488 55.4385 35.166C55.502 35.2832 55.5483 35.4199 55.5776 35.5762C55.6069 35.7275 55.6216 35.8862 55.6216 36.0522C55.6216 36.1646 55.6167 36.2769 55.6069 36.3892C55.5972 36.4966 55.5801 36.6064 55.5557 36.7188C55.4385 37.2461 55.2651 37.7246 55.0356 38.1543C54.811 38.5791 54.5547 38.9453 54.2666 39.2529C53.9834 39.5557 53.6807 39.79 53.3584 39.9561C53.0361 40.1172 52.7212 40.1978 52.4136 40.1978C52.2036 40.1978 52.0034 40.1685 51.813 40.1099C51.6274 40.0513 51.4614 39.9536 51.3149 39.8169C51.1733 39.6802 51.061 39.502 50.978 39.2822C50.895 39.0576 50.8535 38.7817 50.8535 38.4546C50.8535 38.0493 50.9316 37.5659 51.0879 37.0044C51.249 36.4429 51.52 35.7837 51.9009 35.0269C52.4478 33.9673 52.9971 33.0176 53.5488 32.1777C53.7832 31.8213 54.0298 31.4722 54.2886 31.1304C54.5474 30.7886 54.8062 30.4834 55.0649 30.2148C55.3286 29.9463 55.5874 29.7314 55.8413 29.5703C56.1001 29.4043 56.3442 29.3213 56.5737 29.3213C56.603 29.3213 56.6543 29.3262 56.7275 29.3359C56.8057 29.3457 56.8838 29.3726 56.9619 29.4165C57.04 29.4556 57.1084 29.519 57.167 29.6069C57.2305 29.6899 57.2622 29.8071 57.2622 29.9585C57.2622 30.1392 57.2134 30.3687 57.1157 30.647C57.0229 30.9204 56.8813 31.2256 56.6909 31.5625C56.5054 31.8945 56.2734 32.251 55.9951 32.6318C55.7217 33.0078 55.4043 33.3862 55.043 33.7671C54.6865 34.1479 54.2886 34.5215 53.8491 34.8877C53.4146 35.2539 52.9409 35.5957 52.4282 35.9131C52.2573 36.2842 52.1133 36.6211 51.9961 36.9238C51.8838 37.2217 51.7935 37.4927 51.7251 37.7368C51.6567 37.9761 51.6079 38.1885 51.5786 38.374C51.5493 38.5596 51.5347 38.7207 51.5347 38.8574C51.5347 39.0479 51.5591 39.2065 51.6079 39.3335C51.6616 39.4556 51.7324 39.5532 51.8203 39.6265C51.9082 39.6948 52.0083 39.7437 52.1206 39.7729C52.2329 39.8022 52.3501 39.8169 52.4722 39.8169C52.7017 39.8169 52.9238 39.7583 53.1387 39.6411C53.3584 39.5239 53.5659 39.3726 53.7612 39.187C53.9565 38.9966 54.1348 38.7842 54.2959 38.5498C54.4619 38.3154 54.606 38.0835 54.728 37.854C54.8501 37.6196 54.9502 37.3999 55.0283 37.1948C55.1064 36.9849 55.1553 36.8115 55.1748 36.6748ZM52.7358 35.2466C53.1851 34.939 53.5977 34.6143 53.9736 34.2725C54.3545 33.9307 54.6987 33.5889 55.0063 33.2471C55.314 32.9004 55.585 32.5635 55.8193 32.2363C56.0537 31.9043 56.249 31.5942 56.4053 31.3062C56.5615 31.0181 56.6787 30.7617 56.7568 30.5371C56.8398 30.3076 56.8813 30.1221 56.8813 29.9805C56.8813 29.8535 56.835 29.79 56.7422 29.79C56.5664 29.79 56.354 29.8853 56.105 30.0757C55.8608 30.2661 55.5752 30.5762 55.248 31.0059C54.9258 31.4355 54.5547 31.9971 54.1348 32.6904C53.7197 33.3838 53.2534 34.2358 52.7358 35.2466ZM55.2261 36.2939C55.231 36.25 55.2334 36.2061 55.2334 36.1621C55.2383 36.1182 55.2407 36.0767 55.2407 36.0376C55.2407 35.7739 55.2065 35.5615 55.1382 35.4004C55.0698 35.2393 54.9722 35.1587 54.8452 35.1587C54.8159 35.1587 54.7817 35.1636 54.7427 35.1733C54.7085 35.1782 54.6719 35.1953 54.6328 35.2246C54.5986 35.249 54.5693 35.2856 54.5449 35.3345C54.5205 35.3833 54.5083 35.4468 54.5083 35.5249C54.5083 35.7251 54.5767 35.8911 54.7134 36.0229C54.855 36.1499 55.0259 36.2402 55.2261 36.2939ZM59.5181 38.3667C59.3276 38.5767 59.1348 38.772 58.9395 38.9526C58.7441 39.1284 58.5513 39.2822 58.3608 39.4141C58.1704 39.5459 57.9824 39.6509 57.7969 39.729C57.6162 39.8022 57.4404 39.8389 57.2695 39.8389C57.0791 39.8389 56.9058 39.8047 56.7495 39.7363C56.5981 39.6631 56.4663 39.5605 56.354 39.4287C56.2466 39.2969 56.1636 39.1406 56.105 38.96C56.0464 38.7793 56.0171 38.5791 56.0171 38.3594C56.0171 38.0664 56.0781 37.7612 56.2002 37.4438C56.3223 37.1265 56.4785 36.8188 56.6689 36.521C56.8643 36.2183 57.0791 35.9326 57.3135 35.6641C57.5527 35.3955 57.7847 35.1636 58.0093 34.9683L58.3242 35.188C58.2656 35.271 58.1851 35.3857 58.0825 35.5322C57.98 35.6787 57.8701 35.8496 57.7529 36.0449C57.6357 36.2354 57.5161 36.4429 57.394 36.6675C57.2769 36.8921 57.1694 37.1216 57.0718 37.356C56.9741 37.5903 56.8936 37.8247 56.8301 38.0591C56.7715 38.2935 56.7422 38.5132 56.7422 38.7183C56.7422 38.8159 56.7495 38.9111 56.7642 39.0039C56.7837 39.0918 56.813 39.1699 56.8521 39.2383C56.896 39.3066 56.9521 39.3604 57.0205 39.3994C57.0889 39.4385 57.1768 39.458 57.2842 39.458C57.4551 39.458 57.6406 39.4067 57.8408 39.3042C58.0459 39.1968 58.2559 39.0527 58.4707 38.8721C58.6904 38.6865 58.9126 38.4717 59.1372 38.2275C59.3667 37.9834 59.5913 37.7222 59.811 37.4438C60.0308 37.1655 60.2432 36.8799 60.4482 36.5869C60.6533 36.2891 60.8438 35.9961 61.0195 35.708C61.1758 35.4492 61.332 35.1904 61.4883 34.9316C61.6445 34.668 61.8008 34.4116 61.957 34.1626L62.3013 34.3384C62.2964 34.3481 62.25 34.4409 62.1621 34.6167C62.0791 34.7876 61.9668 35.022 61.8252 35.3198C61.6836 35.6128 61.5176 35.9546 61.3271 36.3452C61.1416 36.731 60.9438 37.1436 60.7339 37.583C60.5239 38.0176 60.3091 38.4644 60.0894 38.9233C59.8745 39.3823 59.6646 39.8291 59.4595 40.2637C60.1479 39.8828 60.7705 39.4312 61.3271 38.9087C61.8887 38.3862 62.3696 37.8394 62.77 37.2681L63.041 37.4731C62.6162 38.1226 62.0889 38.7231 61.459 39.2749C60.8291 39.8218 60.0698 40.3467 59.1812 40.8496C58.7759 41.7188 58.3779 42.5122 57.9873 43.23C57.6016 43.9478 57.2134 44.563 56.8228 45.0757C56.437 45.5884 56.0513 45.9839 55.6655 46.2622C55.2749 46.5454 54.8794 46.687 54.479 46.687C54.2153 46.687 53.9956 46.5991 53.8198 46.4233C53.644 46.2476 53.5562 45.9961 53.5562 45.6689C53.5562 45.3955 53.6172 45.1147 53.7393 44.8267C53.8613 44.5386 54.0298 44.248 54.2446 43.9551C54.4595 43.667 54.7158 43.3789 55.0137 43.0908C55.3066 42.8076 55.6289 42.5342 55.9805 42.2705C56.3271 42.0068 56.6909 41.7554 57.0718 41.5161C57.4575 41.2769 57.8481 41.0571 58.2437 40.8569C58.3462 40.6421 58.4561 40.415 58.5732 40.1758C58.6904 39.9414 58.8052 39.7144 58.9175 39.4946C59.0298 39.27 59.1372 39.0601 59.2397 38.8647C59.3472 38.6646 59.4399 38.4985 59.5181 38.3667ZM57.9067 41.5674C57.3452 41.9141 56.8228 42.2827 56.3394 42.6733C55.8608 43.0688 55.4458 43.457 55.0942 43.8379C54.7378 44.2236 54.4595 44.585 54.2593 44.9219C54.0591 45.2588 53.959 45.5444 53.959 45.7788C53.959 45.9351 54.0054 46.0596 54.0981 46.1523C54.186 46.2451 54.3008 46.2915 54.4424 46.2915C54.6328 46.2915 54.8306 46.2256 55.0356 46.0938C55.2358 45.9668 55.4385 45.791 55.6436 45.5664C55.8438 45.3418 56.0439 45.0757 56.2441 44.7681C56.4443 44.4653 56.6396 44.1382 56.8301 43.7866C57.0254 43.4399 57.2134 43.0762 57.394 42.6953C57.5747 42.3193 57.7456 41.9434 57.9067 41.5674ZM71.8594 34.9536C71.8643 34.9634 71.9009 34.9976 71.9692 35.0562C72.0376 35.1099 72.1328 35.1709 72.2549 35.2393C72.3818 35.3076 72.5356 35.3687 72.7163 35.4224C72.897 35.4761 73.1021 35.5029 73.3315 35.5029C73.7173 35.5029 74.0811 35.4297 74.4229 35.2832C74.7646 35.1367 75.0796 34.9438 75.3677 34.7046C75.6606 34.4653 75.9219 34.1919 76.1514 33.8843C76.3857 33.5767 76.5835 33.2617 76.7446 32.9395C76.9058 32.6172 77.0303 32.2998 77.1182 31.9873C77.2061 31.6748 77.25 31.394 77.25 31.145C77.25 30.8472 77.2061 30.5884 77.1182 30.3687C77.0303 30.1489 76.9106 29.9683 76.7593 29.8267C76.6128 29.6851 76.437 29.5801 76.2319 29.5117C76.0317 29.4434 75.8145 29.4092 75.5801 29.4092C75.1162 29.4092 74.6548 29.4922 74.1958 29.6582C73.7417 29.8193 73.2998 30.0415 72.8701 30.3247C72.4404 30.6079 72.0278 30.9424 71.6323 31.3281C71.2368 31.709 70.8682 32.1191 70.5264 32.5586C70.1846 32.998 69.8745 33.457 69.5962 33.9355C69.3179 34.4092 69.0786 34.8804 68.8784 35.3491C68.6831 35.8179 68.5317 36.2744 68.4243 36.7188C68.3169 37.1582 68.2632 37.5635 68.2632 37.9346C68.2632 38.3643 68.3242 38.7695 68.4463 39.1504C68.5732 39.5312 68.7612 39.8633 69.0103 40.1465C69.2593 40.4297 69.5693 40.6519 69.9404 40.813C70.3164 40.979 70.7534 41.062 71.2515 41.062C71.6958 41.062 72.1572 40.9937 72.6357 40.8569C73.1143 40.7202 73.5903 40.5005 74.064 40.1978C74.5425 39.895 75.0137 39.5044 75.4775 39.0259C75.9414 38.5425 76.3857 37.9565 76.8105 37.2681L77.0742 37.4731C76.6152 38.2202 76.1367 38.8477 75.6387 39.3555C75.1406 39.8633 74.6426 40.271 74.1445 40.5786C73.6465 40.8911 73.1558 41.1133 72.6724 41.2451C72.189 41.3818 71.73 41.4502 71.2954 41.4502C70.6704 41.4502 70.1187 41.3379 69.6401 41.1133C69.1616 40.8936 68.7612 40.603 68.439 40.2417C68.1167 39.8804 67.8726 39.4702 67.7065 39.0112C67.5454 38.5474 67.4648 38.0762 67.4648 37.5977C67.4648 37.1875 67.521 36.7505 67.6333 36.2866C67.7505 35.8228 67.9141 35.3516 68.124 34.873C68.334 34.3945 68.5854 33.916 68.8784 33.4375C69.1763 32.959 69.5059 32.5024 69.8672 32.0679C70.2334 31.6284 70.6289 31.2207 71.0537 30.8447C71.4785 30.4688 71.9229 30.144 72.3867 29.8706C72.8555 29.5923 73.3364 29.375 73.8296 29.2188C74.3276 29.0576 74.833 28.9771 75.3457 28.9771C75.668 28.9771 75.9756 29.0234 76.2686 29.1162C76.5664 29.2041 76.8276 29.3457 77.0522 29.541C77.2769 29.7363 77.4551 29.9878 77.5869 30.2954C77.7188 30.5981 77.7847 30.9644 77.7847 31.394C77.7847 31.6821 77.7407 31.9946 77.6528 32.3315C77.5649 32.6685 77.4355 33.0078 77.2646 33.3496C77.0986 33.6865 76.8936 34.0137 76.6494 34.3311C76.4102 34.6484 76.1367 34.9292 75.8291 35.1733C75.5264 35.4126 75.1895 35.6055 74.8184 35.752C74.4521 35.8984 74.0615 35.9717 73.6465 35.9717C73.2021 35.9717 72.814 35.8984 72.4819 35.752C72.1548 35.6006 71.874 35.415 71.6396 35.1953L71.8594 34.9536ZM77.8799 37.1362C78.1387 36.7847 78.4072 36.4624 78.6855 36.1694C78.9639 35.8716 79.2446 35.6152 79.5278 35.4004C79.811 35.1855 80.0894 35.0195 80.3628 34.9023C80.6411 34.7803 80.9097 34.7192 81.1685 34.7192C81.3442 34.7192 81.4883 34.7461 81.6006 34.7998C81.7178 34.8535 81.8081 34.9243 81.8716 35.0122C81.9399 35.0952 81.9863 35.188 82.0107 35.2905C82.04 35.3931 82.0547 35.4956 82.0547 35.5981C82.0547 35.7739 82.0181 35.9644 81.9448 36.1694C81.8716 36.3696 81.7788 36.5796 81.6665 36.7993C81.5591 37.019 81.4419 37.2437 81.3149 37.4731C81.188 37.7026 81.0684 37.9272 80.9561 38.147C80.8486 38.3667 80.7583 38.5815 80.6851 38.7915C80.6118 38.9966 80.5752 39.1895 80.5752 39.3701C80.5752 39.4824 80.5996 39.5874 80.6484 39.6851C80.7021 39.7778 80.7949 39.8242 80.9268 39.8242C81.083 39.8242 81.2563 39.7461 81.4468 39.5898C81.6372 39.4287 81.8301 39.2261 82.0254 38.9819C82.2256 38.7329 82.4233 38.457 82.6187 38.1543C82.8188 37.8516 83.0044 37.5562 83.1753 37.2681L83.439 37.4731C83.3853 37.5464 83.312 37.666 83.2192 37.832C83.1265 37.9932 83.0166 38.1763 82.8896 38.3813C82.7676 38.5815 82.6284 38.7891 82.4722 39.0039C82.3208 39.2188 82.1572 39.4165 81.9814 39.5972C81.8105 39.7729 81.6299 39.917 81.4395 40.0293C81.249 40.1465 81.0562 40.2051 80.8608 40.2051C80.7339 40.2051 80.6069 40.1904 80.48 40.1611C80.353 40.1318 80.2383 40.0781 80.1357 40C80.0332 39.9219 79.9502 39.8169 79.8867 39.6851C79.8232 39.5483 79.7915 39.3774 79.7915 39.1724C79.7915 38.9331 79.8306 38.6914 79.9087 38.4473C79.9917 38.1982 80.0918 37.9541 80.209 37.7148C80.3311 37.4707 80.4629 37.2363 80.6045 37.0117C80.7461 36.7822 80.8755 36.5674 80.9927 36.3672C81.1147 36.167 81.2148 35.9863 81.293 35.8252C81.376 35.6592 81.4175 35.52 81.4175 35.4077C81.4175 35.2075 81.3198 35.1074 81.1245 35.1074C80.8462 35.1074 80.5508 35.2002 80.2383 35.3857C79.9307 35.5664 79.6206 35.8032 79.3081 36.0962C78.9956 36.3892 78.688 36.7188 78.3853 37.085C78.0825 37.4463 77.7993 37.8076 77.5356 38.1689L76.4224 40.2637L75.7559 40C76.376 38.6475 76.9717 37.312 77.543 35.9937C78.1191 34.6704 78.71 33.3643 79.3154 32.0752C79.4082 31.875 79.5156 31.6577 79.6377 31.4233C79.7646 31.189 79.8989 30.9546 80.0405 30.7202C80.187 30.4858 80.3433 30.2612 80.5093 30.0464C80.6753 29.8315 80.8462 29.6411 81.022 29.4751C81.1978 29.3091 81.3784 29.1772 81.564 29.0796C81.7544 28.9771 81.9448 28.9258 82.1353 28.9258C82.3501 28.9258 82.5161 28.9868 82.6333 29.1089C82.7554 29.2261 82.8164 29.3945 82.8164 29.6143C82.8164 29.8438 82.7554 30.105 82.6333 30.3979C82.5112 30.686 82.3477 30.9912 82.1426 31.3135C81.9375 31.6357 81.6982 31.9678 81.4248 32.3096C81.1562 32.6514 80.8706 32.9907 80.5679 33.3276C80.27 33.6646 79.9673 33.9917 79.6597 34.3091C79.3521 34.6216 79.0566 34.9121 78.7734 35.1807L77.8799 37.1362ZM82.1719 29.314C81.9521 29.314 81.7495 29.3994 81.564 29.5703C81.3833 29.7363 81.1855 30.0122 80.9707 30.3979C80.7559 30.7837 80.5093 31.2866 80.231 31.9067C79.9526 32.5269 79.6133 33.2886 79.2129 34.1919C79.75 33.6694 80.2188 33.1641 80.6191 32.6758C81.0244 32.1826 81.3613 31.7334 81.6299 31.3281C81.8984 30.9229 82.0986 30.5713 82.2305 30.2734C82.3672 29.9707 82.4355 29.7461 82.4355 29.5996C82.4355 29.5117 82.4111 29.4434 82.3623 29.3945C82.3135 29.3408 82.25 29.314 82.1719 29.314ZM89.0054 35.1294C88.9419 35.2563 88.8516 35.4224 88.7344 35.6274C88.6221 35.8325 88.5 36.0596 88.3682 36.3086C88.2363 36.5527 88.1021 36.8091 87.9653 37.0776C87.8335 37.3462 87.7114 37.6099 87.5991 37.8687C87.4917 38.1226 87.4014 38.3643 87.3281 38.5938C87.2598 38.8184 87.2256 39.0088 87.2256 39.165C87.2256 39.3213 87.2549 39.4238 87.3135 39.4727C87.377 39.5166 87.4575 39.5386 87.5552 39.5386C87.6968 39.5386 87.8408 39.4971 87.9873 39.4141C88.1387 39.3311 88.2852 39.2236 88.4268 39.0918C88.5732 38.96 88.7148 38.811 88.8516 38.645C88.9883 38.479 89.1152 38.313 89.2324 38.147C89.3545 37.9761 89.4644 37.8149 89.562 37.6636C89.6597 37.5073 89.7427 37.3755 89.811 37.2681L90.0747 37.4731C89.9917 37.6294 89.894 37.7979 89.7817 37.9785C89.6694 38.1592 89.5449 38.3423 89.4082 38.5278C89.2764 38.7085 89.1323 38.8843 88.9761 39.0552C88.8198 39.2261 88.6538 39.3774 88.478 39.5093C88.3071 39.6411 88.1265 39.7461 87.936 39.8242C87.7456 39.9023 87.5503 39.9414 87.3501 39.9414C87.0571 39.9414 86.8423 39.8535 86.7056 39.6777C86.5688 39.502 86.5005 39.2749 86.5005 38.9966C86.5005 38.9771 86.5005 38.9355 86.5005 38.8721C86.5054 38.8037 86.5127 38.75 86.5225 38.7109C86.2783 39.0186 86.0439 39.2725 85.8193 39.4727C85.5996 39.6729 85.3848 39.8315 85.1748 39.9487C84.9697 40.0659 84.7695 40.1465 84.5742 40.1904C84.3838 40.2393 84.2007 40.2637 84.0249 40.2637C83.8394 40.2637 83.6636 40.2319 83.4976 40.1685C83.3364 40.1099 83.1948 40.022 83.0728 39.9048C82.9458 39.7876 82.8481 39.6436 82.7798 39.4727C82.7065 39.3018 82.6699 39.104 82.6699 38.8794C82.6699 38.6011 82.7334 38.2837 82.8604 37.9272C82.9824 37.5659 83.2021 37.1777 83.5195 36.7627C83.7881 36.4062 84.0664 36.106 84.3545 35.8618C84.6475 35.6177 84.9331 35.4224 85.2114 35.2759C85.4946 35.1245 85.7632 35.0171 86.0171 34.9536C86.271 34.8901 86.498 34.8584 86.6982 34.8584C87.1475 34.8584 87.4868 34.9341 87.7163 35.0854C87.9458 35.2319 88.085 35.459 88.1338 35.7666C88.2314 35.6445 88.334 35.5225 88.4414 35.4004C88.5488 35.2783 88.6587 35.1538 88.771 35.0269L89.0054 35.1294ZM86.7568 37.9126C86.8203 37.8101 86.8984 37.6807 86.9912 37.5244C87.084 37.3633 87.1816 37.1997 87.2842 37.0337C87.3867 36.8628 87.4868 36.6992 87.5845 36.543C87.6821 36.3867 87.7676 36.2549 87.8408 36.1475C87.8408 36.1035 87.8335 36.0327 87.8188 35.9351C87.8091 35.8374 87.7773 35.7397 87.7236 35.6421C87.6699 35.5396 87.5845 35.4517 87.4673 35.3784C87.3501 35.3052 87.1865 35.2686 86.9766 35.2686C86.8252 35.2686 86.6543 35.293 86.4639 35.3418C86.2783 35.3857 86.0781 35.4639 85.8633 35.5762C85.6533 35.6836 85.436 35.8276 85.2114 36.0083C84.9868 36.189 84.7622 36.4136 84.5376 36.6821C84.2007 37.0874 83.9395 37.4951 83.7539 37.9053C83.5732 38.3105 83.4829 38.6768 83.4829 39.0039C83.4829 39.2822 83.5464 39.4971 83.6733 39.6484C83.8003 39.7998 83.981 39.8755 84.2153 39.8755C84.4839 39.8755 84.7354 39.8169 84.9697 39.6997C85.2041 39.5776 85.4238 39.4214 85.6289 39.231C85.834 39.0405 86.0293 38.8306 86.2148 38.6011C86.4004 38.3667 86.5811 38.1372 86.7568 37.9126ZM94.4399 37.4731C94.3667 37.5806 94.2788 37.7271 94.1763 37.9126C94.0786 38.0933 93.9639 38.291 93.832 38.5059C93.7002 38.7158 93.5537 38.9307 93.3926 39.1504C93.2363 39.3701 93.063 39.5679 92.8726 39.7437C92.687 39.9194 92.4844 40.0635 92.2646 40.1758C92.0449 40.2881 91.8105 40.3442 91.5615 40.3442C91.4248 40.3442 91.2954 40.3223 91.1733 40.2783C91.0513 40.2393 90.9438 40.1758 90.8511 40.0879C90.7583 40 90.6851 39.8926 90.6313 39.7656C90.5776 39.6338 90.5508 39.48 90.5508 39.3042C90.5508 39.0649 90.5972 38.8159 90.6899 38.5571C90.7876 38.2935 90.8999 38.0396 91.0269 37.7954C91.1538 37.5513 91.2808 37.3291 91.4077 37.1289C91.5347 36.9238 91.6274 36.7603 91.686 36.6382C91.7446 36.5161 91.7739 36.4111 91.7739 36.3232C91.7739 36.2598 91.752 36.2036 91.708 36.1548C91.6689 36.106 91.6177 36.0596 91.5542 36.0156C91.4956 35.9668 91.4321 35.918 91.3638 35.8691C91.3003 35.8154 91.2466 35.752 91.2026 35.6787C91.0806 35.874 90.9561 36.0718 90.8291 36.272C90.7168 36.4429 90.5947 36.6357 90.4629 36.8506C90.3311 37.0605 90.2041 37.2681 90.082 37.4731L89.8184 37.2681L91.3857 34.8145L91.5981 34.9243C91.5884 34.9536 91.5713 35 91.5469 35.0635C91.5273 35.127 91.5176 35.1953 91.5176 35.2686C91.5176 35.3223 91.5249 35.376 91.5396 35.4297C91.5591 35.4785 91.5957 35.5249 91.6494 35.5688C91.8447 35.7446 91.9985 35.8813 92.1108 35.979C92.2231 36.0718 92.3037 36.1475 92.3525 36.2061C92.4062 36.2598 92.438 36.3062 92.4478 36.3452C92.4624 36.3794 92.4697 36.4258 92.4697 36.4844C92.4697 36.543 92.46 36.6138 92.4404 36.6968C92.4209 36.7798 92.3867 36.8799 92.3379 36.9971C92.2939 37.1143 92.2305 37.2534 92.1475 37.4146C92.0693 37.5708 91.9692 37.7539 91.8472 37.9639C91.7739 38.0908 91.7007 38.2202 91.6274 38.3521C91.5591 38.479 91.4956 38.6084 91.437 38.7402C91.3833 38.8721 91.3394 39.0039 91.3052 39.1357C91.271 39.2676 91.2539 39.3945 91.2539 39.5166C91.2539 39.6094 91.2661 39.6851 91.2905 39.7437C91.3198 39.7974 91.3564 39.8389 91.4004 39.8682C91.4443 39.8975 91.4907 39.917 91.5396 39.9268C91.5933 39.9365 91.6445 39.9414 91.6934 39.9414C91.8545 39.9414 92.0132 39.895 92.1694 39.8022C92.3306 39.7046 92.4868 39.5801 92.6382 39.4287C92.7944 39.2773 92.9434 39.1064 93.085 38.916C93.2314 38.7207 93.3706 38.5229 93.5024 38.3228C93.6343 38.1226 93.7563 37.9321 93.8687 37.7515C93.981 37.5659 94.0811 37.4048 94.1689 37.2681L94.4399 37.4731ZM99.4717 29.3433C99.6426 29.3433 99.7842 29.3848 99.8965 29.4678C100.014 29.5508 100.072 29.7021 100.072 29.9219C100.072 30.0732 100.041 30.2539 99.9771 30.4639C99.9185 30.6738 99.8354 30.9033 99.728 31.1523C99.6255 31.3965 99.5034 31.6553 99.3618 31.9287C99.2202 32.1973 99.0664 32.4658 98.9004 32.7344C98.7393 33.0029 98.5684 33.2642 98.3877 33.5181C98.2119 33.772 98.0361 34.0063 97.8604 34.2212C97.5088 34.6558 97.2036 35.022 96.9448 35.3198C96.6909 35.6177 96.4712 35.8716 96.2856 36.0815C96.1001 36.2866 95.9438 36.4551 95.8169 36.5869C95.6899 36.7139 95.5776 36.8237 95.48 36.9165C95.3823 37.0093 95.292 37.0947 95.209 37.1729C95.126 37.2461 95.0405 37.3291 94.9526 37.4219C94.9136 37.6074 94.894 37.7856 94.894 37.9565C94.8989 38.1226 94.9014 38.2764 94.9014 38.418C94.9014 38.8428 94.9697 39.1577 95.1064 39.3628C95.2432 39.5679 95.436 39.6704 95.6851 39.6704C95.8511 39.6704 96.0171 39.6289 96.1831 39.5459C96.354 39.458 96.5225 39.3457 96.6885 39.209C96.8545 39.0723 97.0156 38.9185 97.1719 38.7476C97.3281 38.5718 97.4746 38.396 97.6113 38.2202C97.7529 38.0396 97.8799 37.8662 97.9922 37.7002C98.1045 37.5342 98.2021 37.3901 98.2852 37.2681L98.5562 37.4731C98.5415 37.4927 98.4927 37.5708 98.4097 37.7075C98.3315 37.8394 98.2266 38.0005 98.0947 38.1909C97.9629 38.3813 97.8066 38.5864 97.626 38.8062C97.4453 39.021 97.25 39.2212 97.04 39.4067C96.8301 39.5923 96.6079 39.7461 96.3735 39.8682C96.144 39.9902 95.9097 40.0513 95.6704 40.0513C95.4702 40.0513 95.2773 40.0146 95.0918 39.9414C94.9111 39.8633 94.75 39.7437 94.6084 39.5825C94.4717 39.4165 94.3594 39.2065 94.2715 38.9526C94.1885 38.6987 94.147 38.3936 94.147 38.0371C94.147 37.5928 94.1982 37.1289 94.3008 36.6455C94.4082 36.1572 94.5522 35.6689 94.7329 35.1807C94.9136 34.6875 95.126 34.2017 95.3701 33.7231C95.6143 33.2446 95.873 32.7905 96.1465 32.3608C96.4248 31.9263 96.7129 31.5259 97.0107 31.1597C97.3135 30.7886 97.6089 30.4688 97.897 30.2002C98.1899 29.9316 98.4707 29.7217 98.7393 29.5703C99.0078 29.4189 99.252 29.3433 99.4717 29.3433ZM95.0845 36.77C95.4995 36.3403 95.8999 35.9058 96.2856 35.4663C96.6763 35.022 97.04 34.585 97.377 34.1553C97.7188 33.7207 98.0312 33.3008 98.3145 32.8955C98.5977 32.4854 98.8394 32.0996 99.0396 31.7383C99.2397 31.377 99.396 31.0474 99.5083 30.7495C99.6206 30.4517 99.6768 30.1953 99.6768 29.9805C99.6768 29.9414 99.6572 29.8901 99.6182 29.8267C99.5791 29.7583 99.5327 29.7241 99.479 29.7241C99.3276 29.7241 99.1274 29.8242 98.8784 30.0244C98.6294 30.2246 98.3584 30.498 98.0654 30.8447C97.7773 31.1865 97.4771 31.5869 97.1646 32.0459C96.8569 32.5049 96.5664 32.9956 96.293 33.5181C96.0195 34.0405 95.7754 34.5801 95.5605 35.1367C95.3457 35.6934 95.187 36.2378 95.0845 36.77ZM102.416 38.0078C102.436 38.0127 102.455 38.0151 102.475 38.0151C102.494 38.0151 102.516 38.0151 102.541 38.0151C102.677 38.0151 102.802 38.0029 102.914 37.9785C103.026 37.9492 103.129 37.9053 103.222 37.8467C103.319 37.7881 103.412 37.7124 103.5 37.6196C103.588 37.522 103.673 37.4048 103.756 37.2681L104.02 37.4731C103.786 37.8052 103.544 38.0371 103.295 38.1689C103.046 38.3008 102.782 38.3667 102.504 38.3667C102.401 38.3667 102.311 38.3569 102.233 38.3374C102.023 38.689 101.798 38.9893 101.559 39.2383C101.32 39.4824 101.076 39.6826 100.827 39.8389C100.578 39.9951 100.331 40.1074 100.087 40.1758C99.8428 40.249 99.6157 40.2856 99.4058 40.2856C99.1909 40.2856 98.9907 40.2466 98.8052 40.1685C98.6245 40.0952 98.4683 39.9878 98.3364 39.8462C98.2046 39.7046 98.1021 39.5361 98.0288 39.3408C97.9556 39.1455 97.9189 38.9258 97.9189 38.6816C97.9189 38.4375 97.958 38.1885 98.0361 37.9346C98.1143 37.6807 98.2192 37.4292 98.3511 37.1802C98.4878 36.9312 98.6465 36.6919 98.8271 36.4624C99.0078 36.228 99.2031 36.0107 99.4131 35.8105C99.623 35.6104 99.8403 35.4297 100.065 35.2686C100.29 35.1074 100.514 34.9756 100.739 34.873L100.973 35.1807C100.714 35.3662 100.451 35.6006 100.182 35.8838C99.9185 36.167 99.6768 36.4771 99.457 36.814C99.2422 37.1509 99.064 37.5024 98.9224 37.8687C98.7856 38.23 98.7173 38.5815 98.7173 38.9233C98.7173 39.231 98.7856 39.4702 98.9224 39.6411C99.0591 39.8071 99.2666 39.8901 99.5449 39.8901C99.7598 39.8901 99.9722 39.8462 100.182 39.7583C100.392 39.6704 100.597 39.5508 100.797 39.3994C100.998 39.248 101.19 39.0698 101.376 38.8647C101.562 38.6548 101.737 38.4326 101.903 38.1982C101.762 38.1152 101.637 38.0054 101.53 37.8687C101.422 37.7271 101.332 37.5684 101.259 37.3926C101.186 37.2119 101.129 37.019 101.09 36.814C101.056 36.6089 101.039 36.3989 101.039 36.1841C101.039 35.9692 101.066 35.7666 101.12 35.5762C101.173 35.3857 101.247 35.2197 101.339 35.0781C101.437 34.9316 101.549 34.8169 101.676 34.7339C101.803 34.6509 101.942 34.6094 102.094 34.6094C102.23 34.6094 102.353 34.646 102.46 34.7192C102.567 34.7876 102.658 34.8853 102.731 35.0122C102.804 35.1343 102.86 35.2808 102.899 35.4517C102.938 35.6226 102.958 35.8057 102.958 36.001C102.958 36.1475 102.946 36.3086 102.921 36.4844C102.897 36.6602 102.86 36.8384 102.812 37.019C102.768 37.1948 102.711 37.3706 102.643 37.5464C102.58 37.7173 102.504 37.8711 102.416 38.0078ZM101.42 36.1841C101.42 36.3257 101.432 36.4795 101.457 36.6455C101.481 36.8115 101.52 36.9727 101.574 37.1289C101.627 37.2852 101.696 37.4316 101.779 37.5684C101.862 37.7002 101.964 37.8052 102.086 37.8833C102.174 37.7124 102.248 37.5391 102.306 37.3633C102.37 37.1826 102.421 37.0093 102.46 36.8433C102.504 36.6772 102.533 36.5234 102.548 36.3818C102.567 36.2354 102.577 36.1084 102.577 36.001C102.577 35.8545 102.565 35.7202 102.541 35.5981C102.516 35.4761 102.482 35.3711 102.438 35.2832C102.399 35.1904 102.348 35.1196 102.284 35.0708C102.226 35.0171 102.16 34.9902 102.086 34.9902C101.989 34.9902 101.898 35.0244 101.815 35.0928C101.732 35.1562 101.662 35.2441 101.603 35.3564C101.544 35.4639 101.498 35.5908 101.464 35.7373C101.435 35.8789 101.42 36.0278 101.42 36.1841ZM105.25 33.9575C105.299 33.8745 105.385 33.7305 105.507 33.5254C105.634 33.3203 105.78 33.0933 105.946 32.8442C106.117 32.5952 106.3 32.3462 106.496 32.0972C106.696 31.8433 106.891 31.6284 107.082 31.4526L107.411 31.6504C107.201 31.9971 106.986 32.3657 106.767 32.7563C106.547 33.1421 106.33 33.5425 106.115 33.9575H108.502L108.356 34.3384H105.917C105.697 34.7778 105.49 35.2148 105.294 35.6494C105.104 36.084 104.936 36.499 104.789 36.8945C104.643 37.29 104.528 37.6611 104.445 38.0078C104.362 38.3496 104.32 38.6475 104.32 38.9014C104.32 39.2188 104.394 39.4482 104.54 39.5898C104.687 39.7266 104.867 39.7949 105.082 39.7949C105.272 39.7949 105.468 39.7388 105.668 39.6265C105.868 39.5093 106.063 39.3628 106.254 39.187C106.449 39.0112 106.632 38.8184 106.803 38.6084C106.979 38.3984 107.133 38.2007 107.265 38.0151C107.401 37.8296 107.514 37.6685 107.602 37.5317C107.689 37.3901 107.743 37.3022 107.763 37.2681L108.034 37.4731C107.863 37.7563 107.67 38.0566 107.455 38.374C107.24 38.6914 107.001 38.9868 106.737 39.2603C106.479 39.5288 106.195 39.7534 105.888 39.9341C105.58 40.1099 105.248 40.1978 104.892 40.1978C104.672 40.1978 104.479 40.1587 104.313 40.0806C104.152 40.0024 104.015 39.895 103.903 39.7583C103.791 39.6167 103.708 39.4507 103.654 39.2603C103.595 39.0698 103.566 38.8623 103.566 38.6377C103.566 38.4912 103.59 38.2837 103.639 38.0151C103.683 37.7466 103.761 37.4292 103.874 37.063C103.986 36.6919 104.135 36.2769 104.32 35.8179C104.511 35.3589 104.75 34.8657 105.038 34.3384H103.822L103.969 33.9575H105.25ZM109.25 33.9575C109.298 33.8745 109.384 33.7305 109.506 33.5254C109.633 33.3203 109.779 33.0933 109.945 32.8442C110.116 32.5952 110.299 32.3462 110.495 32.0972C110.695 31.8433 110.89 31.6284 111.081 31.4526L111.41 31.6504C111.2 31.9971 110.985 32.3657 110.766 32.7563C110.546 33.1421 110.329 33.5425 110.114 33.9575H112.501L112.355 34.3384H109.916C109.696 34.7778 109.489 35.2148 109.293 35.6494C109.103 36.084 108.935 36.499 108.788 36.8945C108.642 37.29 108.527 37.6611 108.444 38.0078C108.361 38.3496 108.319 38.6475 108.319 38.9014C108.319 39.2188 108.393 39.4482 108.539 39.5898C108.686 39.7266 108.866 39.7949 109.081 39.7949C109.271 39.7949 109.467 39.7388 109.667 39.6265C109.867 39.5093 110.062 39.3628 110.253 39.187C110.448 39.0112 110.631 38.8184 110.802 38.6084C110.978 38.3984 111.132 38.2007 111.264 38.0151C111.4 37.8296 111.513 37.6685 111.601 37.5317C111.688 37.3901 111.742 37.3022 111.762 37.2681L112.033 37.4731C111.862 37.7563 111.669 38.0566 111.454 38.374C111.239 38.6914 111 38.9868 110.736 39.2603C110.478 39.5288 110.194 39.7534 109.887 39.9341C109.579 40.1099 109.247 40.1978 108.891 40.1978C108.671 40.1978 108.478 40.1587 108.312 40.0806C108.151 40.0024 108.014 39.895 107.902 39.7583C107.79 39.6167 107.707 39.4507 107.653 39.2603C107.594 39.0698 107.565 38.8623 107.565 38.6377C107.565 38.4912 107.589 38.2837 107.638 38.0151C107.682 37.7466 107.76 37.4292 107.873 37.063C107.985 36.6919 108.134 36.2769 108.319 35.8179C108.51 35.3589 108.749 34.8657 109.037 34.3384H107.821L107.968 33.9575H109.25ZM112.318 38.3301C112.309 38.3887 112.301 38.4473 112.296 38.5059C112.292 38.5645 112.289 38.623 112.289 38.6816C112.289 38.8574 112.313 39.0259 112.362 39.187C112.416 39.3433 112.492 39.4824 112.589 39.6045C112.692 39.7217 112.816 39.8145 112.963 39.8828C113.114 39.9512 113.285 39.9854 113.476 39.9854C114.115 39.9854 114.733 39.7681 115.329 39.3335C115.924 38.8989 116.518 38.2104 117.108 37.2681L117.357 37.4878C117.035 38.0249 116.708 38.479 116.376 38.8501C116.044 39.2163 115.712 39.5142 115.38 39.7437C115.053 39.9731 114.73 40.1392 114.413 40.2417C114.096 40.3442 113.793 40.3955 113.505 40.3955C113.295 40.3955 113.073 40.3662 112.838 40.3076C112.604 40.249 112.387 40.1514 112.187 40.0146C111.991 39.8779 111.83 39.6948 111.703 39.4653C111.571 39.2358 111.505 38.9502 111.505 38.6084C111.505 38.2422 111.569 37.8906 111.696 37.5537C111.818 37.2119 111.979 36.8945 112.179 36.6016C112.379 36.3086 112.609 36.0425 112.868 35.8032C113.126 35.5591 113.388 35.3516 113.651 35.1807C113.92 35.0098 114.181 34.8779 114.435 34.7852C114.689 34.6875 114.914 34.6387 115.109 34.6387C115.236 34.6387 115.365 34.6582 115.497 34.6973C115.629 34.7363 115.746 34.7974 115.849 34.8804C115.956 34.9634 116.042 35.0732 116.105 35.21C116.173 35.3467 116.208 35.5103 116.208 35.7007C116.208 35.9595 116.146 36.2036 116.024 36.4331C115.907 36.6577 115.749 36.8677 115.548 37.063C115.348 37.2534 115.116 37.4268 114.853 37.583C114.589 37.7344 114.313 37.8638 114.025 37.9712C113.737 38.0786 113.446 38.1641 113.153 38.2275C112.86 38.291 112.582 38.3252 112.318 38.3301ZM112.377 38.0151C112.704 37.981 113.012 37.9126 113.3 37.8101C113.588 37.7075 113.852 37.583 114.091 37.4365C114.33 37.2852 114.542 37.1216 114.728 36.9458C114.918 36.77 115.077 36.5918 115.204 36.4111C115.331 36.2305 115.429 36.0571 115.497 35.8911C115.565 35.7251 115.6 35.5762 115.6 35.4443C115.6 35.3125 115.563 35.2075 115.49 35.1294C115.421 35.0513 115.338 35.0122 115.241 35.0122C115.026 35.0122 114.784 35.0903 114.516 35.2466C114.247 35.3979 113.979 35.6104 113.71 35.8838C113.441 36.1523 113.188 36.4697 112.948 36.8359C112.714 37.2021 112.523 37.5952 112.377 38.0151Z" fill="white"/>
<path d="M7.084 6.596C9.56667 6.596 11.4707 7.128 12.796 8.192C14.14 9.256 14.812 10.824 14.812 12.896C14.812 15.08 14.1587 16.732 12.852 17.852C11.564 18.9533 9.78133 19.504 7.504 19.504H6.02V26H1.54V6.596H7.084ZM7.14 16.256C8.18533 16.256 8.96 16.004 9.464 15.5C9.968 14.9773 10.22 14.1187 10.22 12.924C10.22 11.86 9.968 11.076 9.464 10.572C8.97867 10.0493 8.204 9.788 7.14 9.788H6.02V16.256H7.14ZM21.8588 10.656C23.9495 10.656 25.5828 11.3373 26.7588 12.7C27.9535 14.044 28.5508 16.004 28.5508 18.58C28.5508 21.044 27.9535 22.976 26.7588 24.376C25.5641 25.776 23.9308 26.476 21.8588 26.476C19.7681 26.476 18.1348 25.7947 16.9588 24.432C15.7828 23.0693 15.1948 21.1093 15.1948 18.552C15.1948 16.0693 15.7828 14.1373 16.9588 12.756C18.1535 11.356 19.7868 10.656 21.8588 10.656ZM21.8588 13.848C21.0935 13.848 20.5335 14.212 20.1788 14.94C19.8241 15.668 19.6468 16.872 19.6468 18.552C19.6468 20.2693 19.8241 21.492 20.1788 22.22C20.5335 22.948 21.0935 23.312 21.8588 23.312C22.6241 23.312 23.1841 22.948 23.5388 22.22C23.9121 21.4733 24.0988 20.26 24.0988 18.58C24.0988 16.8627 23.9215 15.6493 23.5668 14.94C23.2121 14.212 22.6428 13.848 21.8588 13.848ZM34.5758 26.476C33.3438 26.476 32.3825 26.1213 31.6918 25.412C31.0012 24.7027 30.6558 23.7133 30.6558 22.444V5.224L34.9678 4.776V22.248C34.9678 22.7893 35.1918 23.06 35.6398 23.06C35.8265 23.06 36.0318 23.0227 36.2558 22.948L37.0678 25.944C36.3212 26.2987 35.4905 26.476 34.5758 26.476ZM42.7641 11.132V26H38.4521V11.132H42.7641ZM40.5801 3.376C41.3081 3.376 41.9054 3.60933 42.3721 4.076C42.8574 4.54267 43.1001 5.12133 43.1001 5.812C43.1001 6.52133 42.8574 7.10933 42.3721 7.576C41.9054 8.04267 41.3081 8.276 40.5801 8.276C39.8521 8.276 39.2548 8.04267 38.7881 7.576C38.3214 7.10933 38.0881 6.52133 38.0881 5.812C38.0881 5.12133 38.3214 4.54267 38.7881 4.076C39.2548 3.60933 39.8521 3.376 40.5801 3.376ZM50.5422 10.656C51.5315 10.656 52.4555 10.8147 53.3142 11.132C54.1729 11.4493 54.9289 11.8973 55.5822 12.476L54.0142 14.828C52.8942 14.1 51.8395 13.736 50.8502 13.736C50.3275 13.736 49.9262 13.848 49.6462 14.072C49.3662 14.2773 49.2262 14.5667 49.2262 14.94C49.2262 15.22 49.2915 15.4627 49.4222 15.668C49.5715 15.8547 49.8422 16.0507 50.2342 16.256C50.6262 16.4427 51.2142 16.676 51.9982 16.956C53.3795 17.4227 54.3969 18.0107 55.0502 18.72C55.7222 19.4293 56.0582 20.3907 56.0582 21.604C56.0582 23.0973 55.4889 24.2827 54.3502 25.16C53.2115 26.0373 51.7555 26.476 49.9822 26.476C48.8435 26.476 47.7795 26.28 46.7902 25.888C45.8195 25.496 44.9889 24.964 44.2982 24.292L46.3422 21.996C47.4995 22.9293 48.6569 23.396 49.8142 23.396C50.3929 23.396 50.8409 23.2747 51.1582 23.032C51.4942 22.7707 51.6622 22.416 51.6622 21.968C51.6622 21.6133 51.5875 21.324 51.4382 21.1C51.3075 20.876 51.0462 20.6613 50.6542 20.456C50.2809 20.2507 49.6929 20.008 48.8902 19.728C47.5275 19.2613 46.5289 18.6733 45.8942 17.964C45.2782 17.236 44.9702 16.3213 44.9702 15.22C44.9702 14.3613 45.1942 13.5867 45.6422 12.896C46.0902 12.2053 46.7342 11.664 47.5742 11.272C48.4142 10.8613 49.4035 10.656 50.5422 10.656ZM66.0955 10.656C67.2529 10.656 68.1582 11.048 68.8115 11.832C69.4835 12.5973 69.8195 13.652 69.8195 14.996V26H65.5075V15.584C65.5075 14.968 65.4142 14.5387 65.2275 14.296C65.0409 14.0347 64.7795 13.904 64.4435 13.904C64.0702 13.904 63.7062 14.0627 63.3515 14.38C63.0155 14.6787 62.6609 15.1267 62.2875 15.724V26H57.9755V5.224L62.2875 4.776V12.756C62.8102 12.0467 63.3795 11.524 63.9955 11.188C64.6115 10.8333 65.3115 10.656 66.0955 10.656ZM84.7271 18.272C84.7271 18.8693 84.6991 19.392 84.6431 19.84H76.3551C76.4671 21.1467 76.7565 22.052 77.2231 22.556C77.6898 23.06 78.3525 23.312 79.2111 23.312C79.7711 23.312 80.3031 23.2093 80.8071 23.004C81.3111 22.7987 81.8618 22.4813 82.4591 22.052L84.2231 24.432C82.6925 25.7947 80.9098 26.476 78.8751 26.476C76.6351 26.476 74.9271 25.7853 73.7511 24.404C72.5938 23.004 72.0151 21.0813 72.0151 18.636C72.0151 16.2467 72.5751 14.324 73.6951 12.868C74.8151 11.3933 76.3925 10.656 78.4271 10.656C80.3871 10.656 81.9271 11.3187 83.0471 12.644C84.1671 13.9507 84.7271 15.8267 84.7271 18.272ZM80.4991 17.04C80.4991 15.864 80.3405 14.9867 80.0231 14.408C79.7245 13.8107 79.2111 13.512 78.4831 13.512C77.8298 13.512 77.3258 13.792 76.9711 14.352C76.6165 14.8933 76.4018 15.8547 76.3271 17.236H80.4991V17.04ZM99.1705 5.224V26H95.3625L95.1665 24.348C94.2145 25.7667 92.9545 26.476 91.3865 26.476C89.7252 26.476 88.4559 25.7853 87.5785 24.404C86.7012 23.004 86.2625 21.0533 86.2625 18.552C86.2625 16.984 86.4865 15.6027 86.9345 14.408C87.4012 13.2133 88.0452 12.2893 88.8665 11.636C89.7065 10.9827 90.6679 10.656 91.7505 10.656C93.0012 10.656 94.0372 11.1133 94.8585 12.028V4.776L99.1705 5.224ZM92.7585 23.312C93.1879 23.312 93.5705 23.1907 93.9065 22.948C94.2425 22.6867 94.5599 22.2947 94.8585 21.772V15.024C94.5599 14.6133 94.2612 14.3147 93.9625 14.128C93.6825 13.9227 93.3465 13.82 92.9545 13.82C91.4612 13.82 90.7145 15.3973 90.7145 18.552C90.7145 20.3253 90.8919 21.5667 91.2465 22.276C91.6012 22.9667 92.1052 23.312 92.7585 23.312Z" fill="white"/>
<path fill-rule="evenodd" clip-rule="evenodd" d="M40.2976 41.6443C40.3503 41.4914 40.3586 41.3189 40.3215 41.1944C40.3044 41.1362 40.2775 41.0868 40.2443 41.0449C40.201 40.9792 40.142 40.926 40.0664 40.8938C40.0311 40.8887 39.997 40.8847 39.9641 40.8821C39.8668 40.8627 39.762 40.8678 39.6633 40.8948C39.3881 40.9503 39.247 41.1397 39.228 41.4511C39.2531 41.5052 39.2779 41.5595 39.3046 41.6119C39.3168 41.6438 39.3311 41.6729 39.3471 41.697C39.358 41.7135 39.3702 41.7294 39.3827 41.7452C39.4522 41.8452 39.5411 41.9258 39.6737 41.963C39.7851 42.0063 39.9074 42.0157 40.0267 41.9689C40.0369 41.9648 40.0468 41.96 40.0567 41.9553C40.0601 41.9534 40.0634 41.9518 40.0667 41.9498C40.0728 41.9464 40.0787 41.9431 40.0847 41.9395C40.0886 41.9369 40.0929 41.9344 40.0969 41.9318C40.1 41.9296 40.1028 41.9273 40.1059 41.9252C40.1896 41.8654 40.2525 41.7711 40.2914 41.6627C40.2919 41.6617 40.2922 41.6606 40.2925 41.6596C40.294 41.6545 40.296 41.6496 40.2976 41.6443Z" fill="white"/>
<path fill-rule="evenodd" clip-rule="evenodd" d="M40.7507 29.9443C41.0371 29.8519 41.1536 29.5107 41.0546 29.2662C41.0091 29.1534 40.9176 29.0611 40.7759 29.0231C40.4012 28.9228 40.0102 29.1567 40.0672 29.5754C40.1072 29.8711 40.4959 30.0266 40.7507 29.9443Z" fill="white"/>
<path fill-rule="evenodd" clip-rule="evenodd" d="M46.2557 32.4689C45.9953 32.351 45.7181 32.3375 45.4427 32.408C45.1166 32.4915 44.8257 32.7722 44.5106 32.8369C44.0766 32.9259 43.6487 32.6304 43.5046 32.2263C43.2827 31.6046 43.8472 31.0627 43.7195 30.4491C43.6197 29.9696 43.0493 29.6207 42.5755 29.6153C42.0303 29.6093 41.6386 30.0925 41.3316 30.4817C41.12 30.7502 40.8813 31.1008 40.4977 31.1067C40.054 31.1136 39.7906 30.6397 39.5814 30.319C39.2568 29.8212 38.9695 29.1833 38.289 29.1822C37.7982 29.1813 37.2634 29.532 37.1537 30.0155C37.0151 30.6254 37.3742 31.2517 37.3217 31.8668C37.2647 32.5302 36.5594 32.442 36.0745 32.3661C35.4005 32.2607 34.8104 32.6416 34.8876 33.3888C34.9438 33.9306 35.3976 34.087 35.7517 34.4107C36.0261 34.6617 36.1633 35.2168 35.7703 35.4445C35.1597 35.7981 34.1436 35.5317 33.9587 36.4345C33.8452 36.9887 34.13 37.5832 34.659 37.7992C35.3259 38.0716 35.9223 37.5691 36.5678 37.5231C37.3587 37.4667 37.555 38.1956 37.2655 38.828C37.0692 39.2567 36.8592 39.6477 36.9526 40.137C37.0687 40.7464 37.7273 41.0354 38.2865 41.0135C38.985 40.9864 39.0348 40.4729 39.3927 40.0127C39.8632 39.4072 40.4333 39.8238 40.7367 40.308C40.9938 40.7184 41.2087 41.1959 41.7136 41.3493C42.2848 41.5228 42.9508 41.1354 43.2098 40.6272C43.4891 40.0789 43.1842 39.5693 43.0981 39.0197C42.9849 38.2976 43.9017 38.5597 44.2232 38.7672C45.263 39.4377 46.9517 38.6376 46.4878 37.3025C46.2267 36.5514 45.1739 36.6217 44.748 36.0284C44.5157 35.7046 44.5801 35.3789 44.8012 35.156C44.9148 35.0413 45.0698 34.954 45.247 34.908C45.9164 34.7343 46.815 34.7419 46.9776 33.8833C47.0868 33.3064 46.7887 32.7099 46.2557 32.4689Z" fill="white"/>
<path fill-rule="evenodd" clip-rule="evenodd" d="M44.7005 31.6793C45.472 32.1705 46.3506 30.5134 45.6509 30.3286C45.6031 30.3159 45.5511 30.3139 45.4964 30.321C44.957 30.39 44.1606 31.3357 44.7005 31.6793Z" fill="white"/>
<path fill-rule="evenodd" clip-rule="evenodd" d="M35.8786 31.5463C36.0779 31.5021 36.1951 31.2447 36.1788 31.0643C36.1423 30.6599 35.5398 30.6178 35.3751 30.96C35.3347 31.0436 35.3299 31.13 35.3505 31.2102C35.406 31.4265 35.6475 31.5975 35.8786 31.5463Z" fill="white"/>
<path fill-rule="evenodd" clip-rule="evenodd" d="M34.7521 34.4513C34.7216 34.335 34.5357 34.1794 34.437 34.1175C34.3277 34.0487 34.1992 34.0132 34.075 33.9816C33.835 33.9207 33.5511 33.881 33.3256 34.0117C33.1096 34.137 32.9891 34.3994 33.0008 34.6433C33.0347 35.3467 34.0943 35.2429 34.4927 34.9564C34.639 34.8514 34.8017 34.6423 34.7521 34.4513Z" fill="white"/>
<path fill-rule="evenodd" clip-rule="evenodd" d="M44.3107 40.2738C44.3117 40.7744 45.1746 40.9634 45.2937 40.454C45.4489 39.7891 44.3096 39.5138 44.3107 40.2738Z" fill="white"/>
</svg>
