<svg width="91" height="114" viewBox="0 0 91 114" fill="none" xmlns="http://www.w3.org/2000/svg">
<path d="M74.2362 58.608C74.3824 58.3078 74.5315 58.0093 74.6747 57.7073L49.0783 22.5967C48.4465 21.7729 47.9829 20.8325 47.7138 19.8291C47.4448 18.8257 47.3755 17.7791 47.5101 16.7489C47.6446 15.7187 47.9803 14.7251 48.498 13.8249C49.0156 12.9248 49.7052 12.1356 50.5272 11.5025C51.3492 10.8694 52.2875 10.4047 53.2887 10.1351C54.2899 9.86539 55.3342 9.796 56.3622 9.93083C57.3901 10.0657 58.3815 10.4021 59.2797 10.9209C60.1779 11.4397 60.9653 12.1308 61.5971 12.9546L81.1726 40.2136C81.2752 39.8558 81.3769 39.4976 81.4775 39.1389L62.3069 12.4078C61.6035 11.4906 60.7268 10.7212 59.7267 10.1435C58.7266 9.56588 57.6229 9.1913 56.4783 9.04117C55.3338 8.89104 54.171 8.96831 53.0563 9.26856C51.9416 9.5688 50.8968 10.0861 49.9816 10.7911C48.1332 12.2147 46.9249 14.3159 46.6224 16.6324C46.3198 18.9489 46.9479 21.291 48.3684 23.1434L74.2362 58.608Z" fill="black"/>
<path d="M51.6432 20.2636C51.7785 20.1593 51.9418 20.0976 52.1122 20.0862C52.2826 20.0749 52.4525 20.1145 52.6004 20.1999C52.7484 20.2854 52.8677 20.4129 52.9434 20.5664C53.019 20.7198 53.0476 20.8923 53.0254 21.062C53.0032 21.2316 52.9314 21.3909 52.8189 21.5197C52.7064 21.6485 52.5583 21.7409 52.3934 21.7853C52.2285 21.8297 52.0541 21.8241 51.8924 21.7692C51.7306 21.7144 51.5887 21.6126 51.4847 21.4769C51.3452 21.295 51.2835 21.0649 51.3132 20.8374C51.3429 20.6098 51.4616 20.4034 51.6432 20.2636Z" fill="black"/>
<path d="M54.5884 24.1043C54.7238 24 54.887 23.9383 55.0574 23.9269C55.2278 23.9156 55.3977 23.9552 55.5456 24.0406C55.6936 24.1261 55.8129 24.2536 55.8886 24.407C55.9642 24.5605 55.9927 24.7329 55.9706 24.9026C55.9484 25.0723 55.8766 25.2316 55.7641 25.3604C55.6516 25.4891 55.5035 25.5816 55.3386 25.626C55.1737 25.6704 54.9993 25.6648 54.8376 25.6099C54.6758 25.555 54.534 25.4533 54.4299 25.3176C54.2904 25.1357 54.2287 24.9056 54.2584 24.6781C54.2881 24.4505 54.4068 24.2441 54.5884 24.1043Z" fill="black"/>
<path d="M57.5336 27.945C57.669 27.8407 57.8322 27.779 58.0026 27.7676C58.173 27.7563 58.3429 27.7959 58.4909 27.8814C58.6388 27.9668 58.7582 28.0943 58.8338 28.2478C58.9094 28.4012 58.938 28.5737 58.9158 28.7433C58.8937 28.913 58.8218 29.0723 58.7093 29.2011C58.5968 29.3298 58.4487 29.4223 58.2838 29.4667C58.1189 29.5111 57.9445 29.5055 57.7828 29.4506C57.6211 29.3957 57.4792 29.294 57.3751 29.1583C57.306 29.0682 57.2553 28.9654 57.2259 28.8556C57.1965 28.7459 57.1889 28.6314 57.2036 28.5187C57.2183 28.4061 57.2551 28.2974 57.3117 28.199C57.3683 28.1005 57.4437 28.0142 57.5336 27.945Z" fill="black"/>
<path d="M60.6235 31.9744C60.7589 31.8701 60.9221 31.8084 61.0925 31.7971C61.2629 31.7857 61.4328 31.8253 61.5808 31.9108C61.7287 31.9962 61.848 32.1237 61.9237 32.2772C61.9993 32.4306 62.0279 32.6031 62.0057 32.7728C61.9836 32.9424 61.9117 33.1017 61.7992 33.2305C61.6867 33.3593 61.5386 33.4517 61.3737 33.4961C61.2088 33.5405 61.0345 33.5349 60.8727 33.48C60.711 33.4252 60.5691 33.3234 60.465 33.1877C60.3959 33.0976 60.3452 32.9948 60.3158 32.8851C60.2864 32.7753 60.2788 32.6608 60.2935 32.5482C60.3082 32.4355 60.3449 32.3268 60.4016 32.2284C60.4582 32.1299 60.5336 32.0436 60.6235 31.9744Z" fill="black"/>
<path d="M55.5716 20.4496C55.707 20.3453 55.8702 20.2836 56.0406 20.2723C56.211 20.261 56.3809 20.3005 56.5289 20.386C56.6768 20.4715 56.7962 20.599 56.8718 20.7524C56.9474 20.9058 56.976 21.0783 56.9538 21.248C56.9317 21.4177 56.8598 21.577 56.7473 21.7057C56.6348 21.8345 56.4867 21.9269 56.3218 21.9713C56.1569 22.0158 55.9825 22.0102 55.8208 21.9553C55.659 21.9004 55.5172 21.7987 55.4131 21.663C55.344 21.5729 55.2933 21.47 55.2639 21.3603C55.2345 21.2505 55.2269 21.1361 55.2416 21.0234C55.2563 20.9107 55.293 20.802 55.3497 20.7036C55.4063 20.6051 55.4817 20.5188 55.5716 20.4496Z" fill="black"/>
<path d="M58.5168 24.2903C58.6522 24.186 58.8154 24.1243 58.9858 24.113C59.1562 24.1017 59.3261 24.1412 59.4741 24.2267C59.622 24.3122 59.7414 24.4397 59.817 24.5931C59.8927 24.7465 59.9212 24.919 59.899 25.0887C59.8769 25.2584 59.805 25.4177 59.6925 25.5464C59.58 25.6752 59.4319 25.7676 59.267 25.812C59.1021 25.8564 58.9278 25.8509 58.766 25.796C58.6043 25.7411 58.4624 25.6393 58.3584 25.5037C58.2893 25.4136 58.2386 25.3107 58.2091 25.201C58.1797 25.0912 58.1721 24.9767 58.1868 24.8641C58.2016 24.7514 58.2383 24.6427 58.2949 24.5443C58.3515 24.4458 58.4269 24.3595 58.5168 24.2903Z" fill="black"/>
<path d="M61.462 28.131C61.5974 28.0267 61.7606 27.965 61.931 27.9537C62.1014 27.9424 62.2713 27.9819 62.4193 28.0674C62.5672 28.1528 62.6866 28.2803 62.7622 28.4338C62.8379 28.5872 62.8664 28.7597 62.8443 28.9294C62.8221 29.0991 62.7502 29.2584 62.6377 29.3871C62.5252 29.5159 62.3772 29.6083 62.2123 29.6527C62.0474 29.6972 61.873 29.6916 61.7113 29.6367C61.5495 29.5818 61.4076 29.4801 61.3036 29.3444C61.164 29.1624 61.1023 28.9324 61.1321 28.7048C61.1618 28.4772 61.2805 28.2708 61.462 28.131Z" fill="black"/>
<path d="M37.5985 20.8894L37.3473 21.142L33.6809 17.484L34.1832 16.9788L37.8496 20.6368L37.5985 20.8894Z" fill="black"/>
<path d="M40.2284 19.0088L37.5002 14.7379L37.7996 14.5455L38.0999 14.353L40.8281 18.6239L40.5278 18.8164L40.2284 19.0088Z" fill="black"/>
<path d="M59.1946 51.7515L56.4664 47.4806L56.7658 47.2881L57.0661 47.0957L59.7943 51.3666L59.494 51.559L59.1946 51.7515Z" fill="black"/>
<path d="M53.7443 61.0423C53.7295 60.0641 53.7309 59.0322 53.7327 57.9396C53.7452 49.7482 53.7558 39.5925 47.0612 36.0331C47.0221 34.5908 46.9809 33.2441 46.9444 32.0504L46.922 31.3164C46.8166 27.8528 41.9252 25.7321 37.148 25.4274C32.7337 25.1453 27.3293 26.3855 26.6285 30.806C26.3767 32.532 26.2203 34.2707 26.16 36.014C19.4293 39.556 19.4398 49.7332 19.4523 57.9393C19.454 59.032 19.4556 60.064 19.4407 61.0423C19.3055 69.9739 19.3353 76.1613 19.3698 83.3257L19.3841 86.3828L20.0381 86.38L20.0238 83.3226C19.9893 76.1616 19.9595 69.9773 20.0947 61.0523C20.1096 60.0686 20.108 59.0338 20.1063 57.9382C20.0942 50.052 20.08 40.3 26.1305 36.7724C25.8628 44.6385 26.6038 54.1575 26.625 54.4269C26.8145 58.078 28.3954 60.6682 31.3239 62.1252C32.9949 62.9148 34.8211 63.3198 36.6686 63.3105C39.5535 63.3105 46.3275 62.5367 46.9209 55.3704C47.3393 50.3182 47.2376 42.8292 47.0812 36.7893C53.1044 40.3304 53.0908 50.0642 53.0786 57.9386C53.0769 59.034 53.0753 60.0687 53.0903 61.0524C53.2254 69.9806 53.1957 76.167 53.1611 83.3304L53.147 86.3801L53.801 86.3828L53.8151 83.3335C53.8498 76.1666 53.8795 69.9771 53.7443 61.0423ZM46.2693 55.3162C45.7208 61.94 39.3725 62.655 36.6686 62.655C34.5656 62.655 27.6733 62.0589 27.278 54.3885L27.2774 54.3792C27.2649 54.2231 26.0432 38.6741 27.2744 30.9089C27.8162 27.4919 31.8659 26.0454 35.9763 26.0454C36.3533 26.0454 36.7312 26.0575 37.1065 26.0816C41.4788 26.3604 46.1758 28.2969 46.2682 31.3365L46.2907 32.0705C46.4828 38.3482 46.8043 48.8553 46.2693 55.3162Z" fill="black"/>
</svg>
