<svg width="94" height="117" viewBox="0 0 94 117" fill="none" xmlns="http://www.w3.org/2000/svg">
<path d="M43.0336 67.1981L42.9454 67.8671C44.7102 68.0975 46.4882 68.2131 48.2681 68.213C49.4587 68.213 50.6499 68.1613 51.8353 68.0579L51.7762 67.3859C48.8638 67.6393 45.9323 67.5764 43.0336 67.1981Z" fill="black"/>
<path d="M65.0216 54.7738L61.1179 30.9619C60.6664 28.2086 58.559 26.4785 54.8542 25.8199C54.5047 25.7515 54.1748 25.6068 53.8882 25.3963C53.6015 25.1858 53.3652 24.9147 53.1964 24.6024C52.8979 24.0787 52.7554 23.4812 52.7854 22.8798L53.0345 23.0838L56.1632 19.2966C57.7183 17.4139 59.2271 15.3739 59.1106 12.9612C58.9984 10.6377 56.7622 10.6645 55.131 10.6878C54.7936 10.6922 54.4747 10.6962 54.1809 10.6839C51.8298 10.5842 49.447 10.5154 47.0986 10.4794C46.5615 10.4226 46.0206 10.545 45.5609 10.8275C45.3242 11.0221 45.1475 11.2793 45.0511 11.5696C44.9546 11.8598 44.9424 12.1712 45.0157 12.468L45.0206 12.4871H41.8764C41.4594 12.4914 41.0491 12.5913 40.6773 12.7792C40.3054 12.967 39.9821 13.2377 39.7324 13.5702C39.4282 13.9704 39.2194 14.4343 39.1218 14.9267C39.0242 15.4191 39.0403 15.9271 39.1689 16.4124L41.3713 21.6802C41.5522 22.115 41.6345 22.5841 41.6125 23.0542C41.5905 23.5243 41.4647 23.9838 41.2441 24.3999C41.0795 24.7296 40.8421 25.018 40.5497 25.2433C40.2572 25.4686 39.9174 25.625 39.5555 25.7009C35.7237 26.4383 33.4639 28.2576 33.0206 30.9619L29.1171 54.7737C28.9642 55.6508 29.0049 56.5504 29.2364 57.4102C29.4679 58.27 29.8846 59.0693 30.4576 59.7526C31.2657 60.73 32.416 61.3658 33.6764 61.5318C33.6749 61.8043 33.6729 62.0737 33.6697 62.3379C33.5649 70.9904 33.5881 76.9842 33.6147 83.9244L33.6258 86.8648L34.3033 86.8626L34.2923 83.9217C34.2656 76.9844 34.2425 70.9932 34.3472 62.3462C34.3503 62.0913 34.3525 61.8326 34.3539 61.5701H59.6796C59.6811 61.8322 59.6833 62.0908 59.6862 62.346C59.7908 70.9838 59.7676 76.9688 59.7411 83.8991L59.7301 86.8626L60.4077 86.8647L60.4187 83.9017C60.4451 76.9686 60.4683 70.9809 60.3638 62.3381C60.3606 62.0776 60.3585 61.8123 60.357 61.5439C61.6574 61.4017 62.8503 60.7588 63.6811 59.7526C64.254 59.0693 64.6708 58.27 64.9023 57.4103C65.1337 56.5505 65.1745 55.6508 65.0216 54.7738ZM59.8594 60.8954H34.2793C33.6455 60.8905 33.0207 60.7464 32.4493 60.4733C31.8779 60.2003 31.374 59.805 30.9737 59.3158C30.4645 58.7069 30.0945 57.9949 29.8893 57.2293C29.6842 56.4637 29.6489 55.6628 29.7858 54.8823L33.6893 31.0704C34.1864 28.038 37.2239 26.8367 39.6841 26.3633C40.1439 26.2665 40.5762 26.0686 40.9494 25.7841C41.3226 25.4997 41.6272 25.1358 41.8411 24.719C42.1089 24.2145 42.2617 23.6573 42.2886 23.0872C42.3155 22.5171 42.2159 21.9481 41.9968 21.4207L39.8191 16.2205C39.7204 15.8379 39.7095 15.4381 39.7872 15.0508C39.865 14.6634 40.0293 14.2985 40.2681 13.9831C40.4534 13.7309 40.6953 13.5253 40.9745 13.3826C41.2537 13.24 41.5626 13.1644 41.8764 13.1618H52.2623C52.5761 13.1644 52.8849 13.24 53.1642 13.3826C53.4434 13.5252 53.6853 13.7309 53.8705 13.9831C54.1101 14.2996 54.2748 14.6659 54.3522 15.0547C54.4296 15.4435 54.4178 15.8446 54.3176 16.2282L52.3318 21.7047C52.1417 22.2321 52.0681 22.7941 52.1161 23.3524C52.164 23.9107 52.3324 24.4522 52.6097 24.9398C52.8273 25.3376 53.1308 25.6825 53.4983 25.9495C53.8658 26.2165 54.2882 26.3991 54.7351 26.4841C58.1263 27.0871 60.049 28.6303 60.4491 31.0705L64.3529 54.8823C64.4898 55.6629 64.4545 56.4638 64.2493 57.2294C64.0442 57.995 63.6742 58.7069 63.165 59.3158C62.7646 59.8051 62.2608 60.2003 61.6894 60.4734C61.118 60.7464 60.4931 60.8905 59.8594 60.8954ZM45.8996 12.2833C45.864 12.1533 45.8643 12.0161 45.9005 11.8861C45.9367 11.7562 46.0074 11.6385 46.1052 11.5452C46.4073 11.3923 46.7489 11.3343 47.0849 11.3789C49.4251 11.4147 51.7996 11.4832 54.1425 11.5825C54.4605 11.5959 54.7924 11.5917 55.1426 11.5873C57.0078 11.5616 58.1426 11.6462 58.2081 13.0043C58.3091 15.0972 56.9086 16.9782 55.4653 18.7251L53.0901 21.6002L54.9605 16.4422L54.9697 16.4124C55.0984 15.9271 55.1145 15.419 55.0168 14.9266C54.9192 14.4342 54.7104 13.9704 54.4062 13.5702C54.1565 13.2377 53.8332 12.967 53.4614 12.7792C53.0895 12.5914 52.6792 12.4914 52.2623 12.4872H45.9608C45.9355 12.4208 45.915 12.3527 45.8996 12.2833Z" fill="black"/>
<path d="M37.1572 45.215L36.4956 45.0692C35.8148 48.1433 35.8884 51.3355 36.7102 54.3753L37.3643 54.1991C36.5709 51.2646 36.4999 48.1828 37.1572 45.215Z" fill="black"/>
<path d="M57.2975 45.215C57.9548 48.1828 57.8838 51.2646 57.0904 54.1991L57.7445 54.3753C58.5663 51.3355 58.6399 48.1433 57.9591 45.0692L57.2975 45.215Z" fill="black"/>
</svg>
