<svg width="92" height="115" viewBox="0 0 92 115" fill="none" xmlns="http://www.w3.org/2000/svg">
<path d="M64.0742 55.3441C64.0574 54.2393 64.0593 53.074 64.0612 51.8401C64.0755 42.5651 64.0872 31.0605 56.4514 27.0686C56.4075 25.4539 56.3613 23.9462 56.3202 22.6085L56.2947 21.7724C56.1827 18.0939 51.3247 15.8451 46.5601 15.2482L46.0806 15.1882L46.1594 15.7513C46.3332 16.4426 46.3073 17.169 46.0847 17.8462C45.5671 18.9637 44.0079 19.1847 43.1243 19.217L42.9419 19.223C42.5423 19.2186 42.1438 19.2653 41.7561 19.362C41.49 19.4256 41.2426 19.5509 41.0338 19.7277C40.825 19.9045 40.6606 20.1279 40.554 20.3798C40.4975 20.5467 40.46 20.7195 40.4422 20.8948C40.4318 20.9721 40.4217 21.0492 40.4056 21.1251C40.2826 21.4946 40.0565 21.8211 39.754 22.0663C39.4516 22.3115 39.0853 22.4651 38.6984 22.5089C37.8421 22.5893 36.9783 22.5089 36.1515 22.2718L35.9196 22.221C35.1582 21.9995 34.3596 21.9354 33.5725 22.0326L33.193 22.1135L33.1607 22.375C32.9835 23.8085 32.8657 25.4165 32.7929 27.1093C25.2347 31.138 25.2465 42.5957 25.2607 51.8389C25.2624 53.073 25.2643 54.239 25.2475 55.3441C25.0944 65.424 25.1282 72.4071 25.1672 80.4931L25.1834 83.9629L25.9236 83.9595L25.9074 80.4895C25.8684 72.4076 25.8347 65.4276 25.9877 55.3551C26.0045 54.2441 26.0028 53.0752 26.0009 51.8377C25.9872 42.958 25.9729 31.9854 32.76 27.9718C32.4581 36.9134 33.3111 47.7433 33.3212 47.8674C33.5344 51.9938 35.3238 54.9207 38.64 56.5669C40.5314 57.4588 42.5984 57.9162 44.6895 57.9057C47.9547 57.9057 55.6219 57.032 56.2937 48.9383C56.7681 43.2229 56.6516 34.7442 56.474 27.9174C63.3512 31.8874 63.3345 42.9198 63.3209 51.8389C63.319 53.076 63.3171 54.2444 63.334 55.3551C63.487 65.442 63.4532 72.4313 63.4142 80.524L63.3981 83.9596L64.1383 83.9629L64.1545 80.5274C64.1935 72.4308 64.2275 65.4382 64.0742 55.3441ZM55.5559 48.8771C54.935 56.3578 47.7499 57.1655 44.6895 57.1655C42.3091 57.1655 34.5079 56.4922 34.0597 47.8188C34.049 47.6844 33.1706 36.531 33.5147 27.5654L33.5255 27.5597L33.5157 27.5391C33.582 25.8268 33.6926 24.1944 33.8629 22.735C34.5025 22.6983 35.1438 22.7689 35.7602 22.9439L35.9941 22.995C36.9121 23.2565 37.8716 23.3394 38.8208 23.2391C39.3553 23.1742 39.859 22.9539 40.2695 22.6055C40.6799 22.257 40.9791 21.7958 41.1299 21.2789C41.1496 21.1849 41.1629 21.0895 41.1759 20.9941C41.1873 20.8731 41.2114 20.7536 41.2479 20.6377C41.3162 20.4955 41.4159 20.3707 41.5396 20.2728C41.6634 20.175 41.8077 20.1066 41.9618 20.0729C42.2901 19.995 42.6267 19.958 42.964 19.9628L43.1515 19.9568C44.2044 19.9182 46.0726 19.6334 46.7564 18.1576C47.0203 17.4873 47.0864 16.7554 46.9468 16.0487C51.1153 16.6752 55.4602 18.6903 55.5549 21.795L55.5805 22.6312C55.7979 29.7194 56.1615 41.5828 55.5559 48.8771Z" fill="black"/>
<path d="M33.0914 11.6096L32.5188 12.0789L35.9001 16.2043L36.4727 15.735L33.0914 11.6096Z" fill="black"/>
<path d="M29.7536 15.2687L29.372 15.903L33.7661 18.5462L34.1476 17.912L29.7536 15.2687Z" fill="black"/>
<path d="M42.9236 8.03709L42.1843 8.07434L42.4551 13.4486L43.1944 13.4114L42.9236 8.03709Z" fill="black"/>
<path d="M38.148 9.08302L37.4344 9.2793L38.83 14.3538L39.5437 14.1576L38.148 9.08302Z" fill="black"/>
</svg>
