<svg width="88" height="110" viewBox="0 0 88 110" fill="none" xmlns="http://www.w3.org/2000/svg">
<path d="M48.8726 29.3048L48.5364 29.0364L48.2002 28.7689L44.5474 33.3528L45.2197 33.8879L48.8726 29.3048Z" fill="black"/>
<path d="M40.3603 26.807L40.1248 32.3245L40.9839 32.3611L41.2193 26.8436L40.3603 26.807Z" fill="black"/>
<path d="M26.1008 69.9256L25.6731 69.9626L26.173 75.8023L26.6015 75.7653L27.0292 75.7292L26.5294 69.8887L26.1008 69.9256Z" fill="black"/>
<path d="M21.4216 68.3669L18.5602 73.0903L19.2955 73.5358L22.1569 68.8123L21.4216 68.3669Z" fill="black"/>
<path d="M72.604 50.4458C70.1428 51.7656 67.9759 53.5724 66.2353 55.7563C64.3663 57.9149 62.6389 60.1849 60.6184 62.2097C56.4045 66.4322 51.1951 69.8002 45.2534 70.8771C42.0564 71.4812 38.7613 71.312 35.643 70.3836C35.9992 70.1283 36.3272 69.8219 36.6572 69.5445C37.473 68.8589 38.2724 68.1536 39.0653 67.4417C42.0759 64.7533 44.9459 61.9115 47.6639 58.9277C48.9596 57.6132 49.9876 56.0595 50.6909 54.353C51.3037 52.5138 51.4173 50.5448 51.02 48.6473C50.6802 46.7679 49.9566 44.9788 48.8942 43.3918C47.8318 41.8048 46.4536 40.4539 44.8455 39.4236C46.3225 37.9825 47.8038 36.5457 49.2893 35.1133C52.1934 32.3147 55.1132 29.5325 58.0488 26.7668C61.227 23.7698 64.4186 20.7871 67.6236 17.8186C68.0469 17.426 68.4704 17.0335 68.8941 16.6413C69.3009 16.2646 68.6919 15.6579 68.2863 16.0335C65.0362 19.0429 61.797 22.064 58.5687 25.0968C55.623 27.8679 52.6914 30.6538 49.7737 33.4545C47.2219 35.9063 44.6837 38.3721 42.1592 40.8521C41.9862 39.7805 41.6969 38.731 41.2964 37.7222C40.1646 34.9005 38.124 32.5371 35.4976 31.006C35.4151 30.9597 35.3198 30.9412 35.226 30.9533C35.1322 30.9654 35.0448 31.0074 34.9767 31.0732C32.9756 33.0085 30.895 34.8613 28.8217 36.7184C26.3346 38.946 23.8428 41.1686 21.3936 43.4379C18.9613 45.6914 16.5626 47.9865 14.2856 50.398C12.3227 52.4019 10.5394 54.574 8.95584 56.8893C7.93918 58.4376 6.8577 60.3103 6.89474 62.2268C6.94834 64.9995 9.94824 66.2792 12.3234 66.6259C16.4651 67.1419 20.6581 66.2156 24.197 64.0029C25.9317 66.0846 27.9439 67.9184 30.1773 69.453C31.3954 70.2829 32.9232 71.1655 34.456 70.9163C34.491 70.9106 34.5233 70.8991 34.5575 70.8919C34.6021 70.9317 34.6541 70.9623 34.7106 70.9818C40.6705 73.0817 47.3131 72.0261 52.8211 69.14C55.4534 67.7331 57.8882 65.9845 60.0622 63.9395C62.1641 61.894 64.1315 59.7147 65.9522 57.4153C67.9753 54.9881 70.1503 52.5882 73.0379 51.1881C73.5354 50.9467 73.1001 50.2053 72.604 50.4458ZM15.3874 65.9013C13.2396 66.1356 11.0729 65.6819 9.19952 64.6055C8.91848 64.4221 8.6592 64.2073 8.42666 63.9653C8.32489 63.866 8.23665 63.7537 8.16422 63.6314C7.98883 63.3816 7.87058 63.0963 7.81789 62.7957C7.77948 62.6538 7.75973 62.5074 7.75911 62.3604C7.75004 62.1852 7.75228 62.0096 7.76579 61.8347C7.7754 61.6656 7.7989 61.4975 7.83604 61.3323C7.87496 61.1358 7.92399 60.9413 7.9806 60.7492C8.26592 59.8467 8.66305 58.9834 9.16274 58.1795C10.5343 55.9822 12.1271 53.9311 13.9161 52.0581C16.0574 49.7108 18.3328 47.4876 20.6459 45.311C23.0329 43.0648 25.4696 40.8722 27.9111 38.6856C30.0537 36.7668 32.2069 34.8584 34.3078 32.8938C34.6539 32.5703 34.9973 32.244 35.3382 31.915C37.6471 33.3293 39.4442 35.4439 40.4675 37.9507C41.3838 40.0828 41.6711 42.4326 41.2953 44.7228C41.0191 45.9953 40.4543 47.1874 39.6446 48.2072C37.7104 50.7106 35.5733 53.0505 33.2551 55.2032C31.0869 57.3167 28.8562 59.3832 26.5114 61.3007C23.3955 63.992 19.494 65.6056 15.3874 65.9013ZM33.4243 70.0525C32.6911 69.8867 31.9923 69.5947 31.3591 69.1897C29.7626 68.2017 28.2849 67.0338 26.9548 65.7087C26.2417 65.0201 25.5649 64.2977 24.9243 63.5414C26.1896 62.6752 27.3982 61.7289 28.5427 60.7084C29.7511 59.664 30.9366 58.5937 32.0991 57.4974C34.6259 55.1862 37.0072 52.7208 39.2293 50.1153C40.061 49.1747 40.7906 48.1485 41.4059 47.0541C42.1699 45.461 42.4759 43.687 42.2899 41.9301C42.9307 41.3004 43.5722 40.6712 44.2143 40.0427C46.9901 41.7503 49.0171 44.4448 49.8883 47.5852C50.426 49.3373 50.5282 51.1941 50.1862 52.9947C49.7484 54.7093 48.8925 56.2887 47.6952 57.5918C46.5616 58.9313 45.3129 60.1839 44.0896 61.4409C42.69 62.8792 41.251 64.2779 39.7728 65.6369C38.3387 66.9602 36.8838 68.2675 35.3696 69.4992C35.1136 69.7408 34.8032 69.9172 34.4646 70.0135C34.126 70.1098 33.7692 70.1232 33.4243 70.0525Z" fill="black"/>
</svg>
