<svg width="87" height="109" viewBox="0 0 87 109" fill="none" xmlns="http://www.w3.org/2000/svg">
<path d="M82.0184 51.525C79.9542 52.6345 78.1367 54.1534 76.6768 55.9893C75.1092 57.804 73.6604 59.7123 71.9657 61.4144C68.4314 64.9642 64.0622 67.7955 59.0786 68.7008C56.394 69.2094 53.6269 69.0662 51.0088 68.2832C51.1896 68.1407 51.3689 67.9959 51.5466 67.8487C53.9929 65.8037 56.3306 63.6315 58.5501 61.3412C59.6765 60.1874 60.7808 59.0047 61.7919 57.747C62.6013 56.8389 63.2442 55.7945 63.691 54.6621C64.3451 52.4057 64.2053 49.9924 63.2949 47.8271C62.5517 45.8827 61.2927 44.1788 59.6539 42.8993C59.3599 42.6707 59.0528 42.4623 58.739 42.2636C59.359 41.6611 59.9788 41.0584 60.5985 40.4556C63.4511 37.6956 66.3172 34.9496 69.1969 32.2178C72.0622 29.4995 74.9408 26.7952 77.8326 24.105C78.1905 23.7721 78.5485 23.4393 78.9068 23.1068C79.248 22.7902 78.7372 22.2801 78.397 22.5959C75.5022 25.2827 72.6204 27.9835 69.7515 30.6983C66.8829 33.4131 64.0275 36.1419 61.1855 38.8849C58.3434 41.6277 55.5148 44.3844 52.6996 47.155C52.3737 47.4757 52.0505 47.7993 51.7266 48.1221L46.5885 46.993L31.5605 32.1095L36.2071 27.4522L13.2526 7.33868C12.7032 6.78156 11.961 6.45763 11.1798 6.43401C10.3986 6.41039 9.63832 6.68889 9.05642 7.21181L3.63883 12.6418C3.11709 13.2251 2.8392 13.9871 2.86274 14.7701C2.88629 15.5531 3.20947 16.297 3.76531 16.8477L24.1567 39.5303L28.8035 34.8729L43.8315 49.7563L47.1958 52.6251C46.2149 53.5998 45.2294 54.5699 44.2534 55.5495C41.4655 58.3476 38.6914 61.1593 35.9309 63.9846C35.5893 64.3343 35.2478 64.6842 34.9066 65.0343C34.8858 65.0557 34.8675 65.0795 34.852 65.1051C34.3706 65.8115 34.116 66.6485 34.1225 67.504C34.1289 68.3595 34.3961 69.1925 34.8882 69.8915C36.0715 71.6036 38.4185 72.0452 40.355 72.1027C42.5262 72.1623 44.6849 71.7541 46.6852 70.9057C47.97 70.3515 49.186 69.6493 50.3089 68.8134C55.2889 70.5445 60.8285 69.655 65.4257 67.2405C67.6336 66.0578 69.6757 64.5878 71.4992 62.8687C73.2622 61.1491 74.9123 59.317 76.4394 57.384C78.1362 55.3435 79.9604 53.3261 82.3823 52.1491C82.7997 51.9461 82.4346 51.3228 82.0184 51.525ZM46.4166 47.7278L56.5127 49.5815L55.3902 50.7066L46.2678 47.8769L46.4166 47.7278ZM55.0487 51.0489L53.9978 52.1021L45.6575 48.4886L45.9264 48.2191L55.0487 51.0489ZM53.6585 52.4423L52.749 53.3538L45.0589 49.0885L45.3181 48.8287L53.6585 52.4423ZM28.2945 34.3628L24.1806 38.4861L4.29712 16.3615C3.86695 15.9474 3.61166 15.3837 3.58386 14.7866C3.55607 14.1894 3.7579 13.6044 4.14775 13.1519L9.56533 7.72189C10.0167 7.33115 10.6004 7.12887 11.1962 7.15675C11.792 7.18462 12.3544 7.44053 12.7675 7.87171L35.1653 27.4761L31.0515 31.5994L28.2945 34.3628ZM29.3124 34.3628L31.0515 32.6197L45.8513 47.2742L44.1122 49.0173L29.3124 34.3628ZM44.7176 49.4307L52.4077 53.696L51.2896 54.8166L44.5647 49.5839L44.7176 49.4307ZM48.5732 69.1267C46.848 70.1954 44.9285 70.9106 42.9258 71.2309C41.9141 71.3832 40.8889 71.4256 39.8681 71.3573C38.8582 71.321 37.8652 71.086 36.9457 70.6655C36.159 70.3163 35.5267 69.6909 35.1681 68.907C34.8421 68.1528 34.7632 67.3144 34.9426 66.5123C35.022 66.1569 35.1844 65.8255 35.4165 65.5452C38.1736 62.7167 40.9444 59.9016 43.7287 57.1C45.1721 55.6477 46.3195 54.4719 47.7205 53.0725L51.1392 55.9877L57.6811 49.4307L52.5629 48.3059C54.438 46.4584 56.3191 44.6169 58.2062 42.7816C59.9333 43.8395 61.3289 45.3628 62.2337 47.1776C63.1384 48.9923 63.5159 51.0255 63.323 53.0451C63.1386 54.3639 62.5942 55.6059 61.7498 56.6341C60.8895 57.757 59.9659 58.8297 58.9835 59.8469C56.8155 62.15 54.5129 64.3365 52.1265 66.4108C51.0197 67.4138 49.8311 68.3223 48.5732 69.1267Z" fill="black"/>
<path d="M48.7319 30.1885H48.2404C48.2404 33.3624 46.35 35.2572 43.1834 35.2572V35.7499C46.35 35.7499 48.2404 37.6446 48.2404 40.8185H48.7319C48.7319 37.6446 50.6224 35.7499 53.789 35.7499V35.2572C50.6224 35.2572 48.7319 33.3624 48.7319 30.1885ZM48.4862 38.9326C48.2725 38.1073 47.8427 37.3543 47.2412 36.7514C46.6397 36.1485 45.8884 35.7177 45.065 35.5035C45.8884 35.2893 46.6397 34.8585 47.2412 34.2556C47.8427 33.6527 48.2725 32.8997 48.4862 32.0744C48.6999 32.8997 49.1297 33.6527 49.7312 34.2556C50.3327 34.8585 51.084 35.2893 51.9074 35.5035C51.084 35.7177 50.3327 36.1485 49.7312 36.7514C49.1297 37.3543 48.6999 38.1073 48.4862 38.9326Z" fill="black"/>
<path d="M38.0998 51.7686H37.855C37.8865 52.1079 37.8429 52.4501 37.7275 52.7708C37.6121 53.0914 37.4276 53.3826 37.1871 53.6236C36.9466 53.8646 36.6561 54.0496 36.3362 54.1653C36.0163 54.281 35.675 54.3246 35.3363 54.2931V54.5384C35.6749 54.5069 36.0163 54.5505 36.3362 54.6662C36.6561 54.7819 36.9466 54.9668 37.1871 55.2079C37.4275 55.4489 37.6121 55.7401 37.7275 56.0607C37.8429 56.3813 37.8865 56.7235 37.855 57.0629H38.0998C38.0683 56.7235 38.1118 56.3813 38.2273 56.0607C38.3427 55.7401 38.5272 55.4489 38.7677 55.2079C39.0082 54.9668 39.2987 54.7819 39.6185 54.6662C39.9384 54.5505 40.2798 54.5069 40.6184 54.5384V54.2931C40.2798 54.3246 39.9384 54.281 39.6185 54.1653C39.2986 54.0496 39.0081 53.8646 38.7677 53.6236C38.5272 53.3826 38.3427 53.0914 38.2272 52.7708C38.1118 52.4501 38.0683 52.1079 38.0998 51.7686ZM37.9774 56.1236C37.871 55.7126 37.6569 55.3375 37.3573 55.0372C37.0577 54.737 36.6835 54.5224 36.2735 54.4157C36.6835 54.3091 37.0577 54.0945 37.3573 53.7942C37.6569 53.4939 37.871 53.1189 37.9774 52.7078C38.0838 53.1189 38.2979 53.4939 38.5975 53.7942C38.897 54.0945 39.2712 54.3091 39.6813 54.4157C39.2712 54.5224 38.897 54.737 38.5975 55.0372C38.2979 55.3375 38.0838 55.7126 37.9774 56.1236Z" fill="black"/>
<path d="M29.4941 45.6348H29.1306C29.1774 46.1387 29.1128 46.6468 28.9414 47.1228C28.77 47.5989 28.496 48.0313 28.1389 48.3891C27.7819 48.747 27.3505 49.0216 26.8756 49.1934C26.4006 49.3652 25.8937 49.43 25.3909 49.3832V49.7475C25.8937 49.7006 26.4006 49.7654 26.8755 49.9372C27.3505 50.109 27.7819 50.3836 28.1389 50.7415C28.496 51.0994 28.7699 51.5317 28.9414 52.0078C29.1128 52.4838 29.1774 52.9919 29.1306 53.4958H29.4941C29.4474 52.9919 29.512 52.4838 29.6834 52.0078C29.8548 51.5317 30.1288 51.0994 30.4858 50.7415C30.8429 50.3836 31.2742 50.109 31.7492 49.9372C32.2242 49.7654 32.7311 49.7006 33.2339 49.7475V49.3832C32.7311 49.43 32.2242 49.3652 31.7492 49.1934C31.2742 49.0216 30.8429 48.747 30.4858 48.3891C30.1288 48.0313 29.8548 47.5989 29.6834 47.1228C29.512 46.6468 29.4474 46.1387 29.4941 45.6348ZM29.3124 52.1011C29.1544 51.4908 28.8365 50.934 28.3917 50.4881C27.9469 50.0423 27.3913 49.7237 26.7824 49.5653C27.3913 49.4069 27.9469 49.0883 28.3917 48.6425C28.8365 48.1966 29.1544 47.6397 29.3124 47.0295C29.4704 47.6398 29.7883 48.1966 30.2331 48.6425C30.6779 49.0883 31.2335 49.407 31.8424 49.5653C31.2335 49.7237 30.6779 50.0423 30.2331 50.4881C29.7883 50.934 29.4704 51.4908 29.3124 52.1011Z" fill="black"/>
</svg>
