<svg width="82" height="103" viewBox="0 0 82 103" fill="none" xmlns="http://www.w3.org/2000/svg">
<path d="M61.3078 32.3186C61.0901 32.3186 60.8774 32.3834 60.6964 32.5049C60.5155 32.6264 60.3744 32.7991 60.2911 33.0012C60.2078 33.2032 60.186 33.4255 60.2285 33.64C60.2709 33.8545 60.3757 34.0515 60.5296 34.2062C60.6835 34.3608 60.8795 34.4662 61.093 34.5088C61.3064 34.5515 61.5277 34.5296 61.7288 34.4459C61.9298 34.3623 62.1017 34.2205 62.2226 34.0387C62.3435 33.8569 62.4081 33.6431 62.4081 33.4244C62.4078 33.1312 62.2917 32.8502 62.0855 32.6429C61.8792 32.4356 61.5995 32.319 61.3078 32.3186ZM61.3078 34.0044C61.1936 34.0044 61.082 33.9704 60.987 33.9067C60.8921 33.8429 60.8181 33.7523 60.7744 33.6463C60.7307 33.5403 60.7193 33.4237 60.7416 33.3112C60.7638 33.1986 60.8188 33.0953 60.8996 33.0141C60.9803 32.933 61.0832 32.8778 61.1952 32.8554C61.3071 32.833 61.4232 32.8445 61.5287 32.8884C61.6342 32.9323 61.7243 33.0067 61.7878 33.1021C61.8512 33.1975 61.885 33.3097 61.885 33.4244C61.8849 33.5782 61.824 33.7256 61.7158 33.8344C61.6075 33.9431 61.4608 34.0043 61.3078 34.0044Z" fill="black"/>
<path d="M68.6052 53.8252C67.0181 53.827 65.4965 54.4614 64.3742 55.5891C63.2519 56.7169 62.6206 58.2459 62.6188 59.8408V65.3247C62.617 66.1158 62.7705 66.8996 63.0705 67.6311C63.3705 68.3625 63.8112 69.0273 64.3672 69.5874C64.9233 70.1475 65.5839 70.5919 66.3111 70.8951C67.0383 71.1983 67.8179 71.3544 68.6052 71.3544C69.3926 71.3544 70.1722 71.1983 70.8994 70.8951C71.6266 70.5919 72.2872 70.1475 72.8432 69.5874C73.3993 69.0273 73.84 68.3625 74.14 67.6311C74.44 66.8996 74.5935 66.1158 74.5916 65.3247V59.8408C74.5898 58.2459 73.9586 56.7169 72.8363 55.5891C71.714 54.4614 70.1924 53.827 68.6052 53.8252ZM74.0686 65.3246C74.0686 66.7807 73.493 68.1771 72.4684 69.2066C71.4438 70.2362 70.0542 70.8146 68.6052 70.8146C67.1563 70.8146 65.7667 70.2362 64.7421 69.2066C63.7175 68.1771 63.1419 66.7807 63.1419 65.3246V59.8408C63.1419 58.3848 63.7175 56.9884 64.7421 55.9588C65.7667 54.9292 67.1563 54.3508 68.6052 54.3508C70.0542 54.3508 71.4438 54.9292 72.4684 55.9588C73.493 56.9884 74.0686 58.3848 74.0686 59.8408V65.3246Z" fill="black"/>
<path d="M53.4431 53.8252C51.856 53.827 50.3343 54.4614 49.2121 55.5891C48.0898 56.7169 47.4585 58.2459 47.4567 59.8408V65.3246C47.4604 66.9176 48.0927 68.4441 49.215 69.5692C50.3373 70.6943 51.8578 71.3262 53.4431 71.3262C55.0284 71.3262 56.5489 70.6943 57.6712 69.5692C58.7934 68.4441 59.4258 66.9176 59.4295 65.3246V59.8408C59.4277 58.2459 58.7964 56.7169 57.6741 55.5891C56.5519 54.4614 55.0303 53.827 53.4431 53.8252ZM58.9064 65.3246C58.9064 66.7807 58.3308 68.1771 57.3063 69.2066C56.2817 70.2362 54.8921 70.8146 53.4431 70.8146C51.9941 70.8146 50.6045 70.2362 49.58 69.2066C48.5554 68.1771 47.9798 66.7807 47.9798 65.3246V59.8408C47.9798 58.3848 48.5554 56.9884 49.58 55.9588C50.6045 54.9292 51.9941 54.3508 53.4431 54.3508C54.8921 54.3508 56.2817 54.9292 57.3063 55.9588C58.3308 56.9884 58.9064 58.3848 58.9064 59.8408V65.3246Z" fill="black"/>
<path d="M69.504 51.3566L67.6648 51.3568L67.631 51.357C66.756 51.3702 65.9114 51.0349 65.2816 50.4245C64.6518 49.814 64.2879 48.9779 64.2695 48.0988L63.8013 26.5216C63.7625 24.8552 63.5924 23.1944 63.2927 21.555L60.9516 8.76526L58.8485 21.6338C58.5889 23.2238 58.4509 24.8315 58.4356 26.4426L58.235 48.069C58.23 48.5249 58.1332 48.975 57.9504 49.3923C57.7677 49.8096 57.5028 50.1854 57.1717 50.4971C56.8522 50.8003 56.4741 51.0345 56.061 51.1851C55.6478 51.3358 55.2083 51.3996 54.7697 51.3728C54.5924 51.362 54.4094 51.3566 54.2259 51.3566H52.4284C50.5721 51.3588 48.7923 52.1007 47.4797 53.4198C46.167 54.7388 45.4287 56.5272 45.4266 58.3927V66.942C45.4287 68.8074 46.167 70.5958 47.4797 71.9149C48.7923 73.2339 50.5721 73.9759 52.4284 73.978H54.2259C55.7515 73.9761 57.2349 73.4744 58.4513 72.549C59.6676 71.6236 60.5505 70.325 60.9662 68.8499C61.3819 70.325 62.2648 71.6236 63.4811 72.549C64.6975 73.4744 66.1809 73.9761 67.7065 73.978H69.5039C71.3603 73.9759 73.1401 73.2339 74.4527 71.9149C75.7654 70.5958 76.5037 68.8074 76.5058 66.942V58.3927C76.5037 56.5272 75.7654 54.7388 74.4527 53.4198C73.1401 52.1007 71.3603 51.3587 69.504 51.3566ZM63.2784 26.5334L63.3377 29.2647C62.4249 28.5643 61.4839 27.8002 61.2986 26.5937C61.2252 25.9808 61.201 25.363 61.2259 24.7462C61.2297 24.2709 61.2287 23.7956 61.2313 23.3202C61.2457 20.7584 61.2791 18.1967 61.2895 15.6349C61.2924 14.9343 61.2934 14.2337 61.2925 13.533L62.7783 21.6501C63.073 23.262 63.2402 24.8949 63.2784 26.5334ZM54.2259 73.4524H52.4284C50.7108 73.4504 49.064 72.7639 47.8494 71.5434C46.6348 70.3229 45.9516 68.668 45.9496 66.942V58.3927C45.9516 56.6666 46.6348 55.0118 47.8493 53.7913C49.0639 52.5707 50.7107 51.8842 52.4284 51.8822H54.2258C54.399 51.8822 54.5714 51.8874 54.7383 51.8975C55.2478 51.9287 55.7583 51.8546 56.2382 51.6799C56.7181 51.5051 57.1572 51.2333 57.5285 50.8814C57.9113 50.521 58.2176 50.0864 58.4289 49.604C58.6402 49.1215 58.7522 48.601 58.7581 48.0739L58.866 36.4332C59.4435 36.8539 59.9538 37.3606 60.3794 37.9359C60.873 38.751 61.1007 39.7007 61.0307 40.6522C61.0199 42.8138 60.9832 44.9755 60.9662 47.1371C60.9326 51.4322 60.9096 55.7276 60.8476 60.0225C60.8134 62.3892 60.7642 64.7556 60.7 67.1217C60.6519 68.8157 59.9489 70.4242 58.7403 71.6061C57.5316 72.7879 55.9123 73.4502 54.2259 73.4524ZM75.9827 66.942C75.9808 68.668 75.2976 70.3228 74.083 71.5434C72.8684 72.7639 71.2217 73.4504 69.504 73.4524H67.7065C65.9889 73.4504 64.3421 72.7639 63.1275 71.5433C61.9129 70.3228 61.2297 68.668 61.2278 66.942C61.3462 62.666 61.3997 58.3885 61.4362 54.1111C61.4738 49.7076 61.4963 45.3039 61.5512 40.9005C61.6474 39.8207 61.423 38.7364 60.9064 37.7846C60.3493 37.0023 59.661 36.3234 58.8722 35.7783L58.9587 26.4476C58.9738 24.8633 59.1095 23.2825 59.3646 21.719L60.7698 13.1216C60.7757 15.245 60.7585 17.3686 60.7399 19.4918C60.7291 20.7238 60.7165 21.9558 60.7091 23.1878C60.6549 24.3061 60.6745 25.4267 60.7676 26.5424C60.8561 27.2385 61.1477 27.8927 61.6056 28.4225C62.1315 28.987 62.7166 29.4928 63.3506 29.931L63.3522 29.932L63.7466 48.1102C63.7787 49.1234 64.2025 50.0841 64.928 50.7885C65.6535 51.4928 66.6236 51.8853 67.6323 51.8826L67.6693 51.8825L69.504 51.8823C71.2217 51.8843 72.8685 52.5708 74.0831 53.7913C75.2977 55.0118 75.9809 56.6667 75.9828 58.3927L75.9827 66.942Z" fill="black"/>
<path d="M21.7483 11.6897C21.6607 11.6164 21.5668 11.551 21.4678 11.4943L21.4713 11.4012C21.4813 11.1404 21.432 10.8807 21.3273 10.6418C21.2226 10.403 21.0651 10.1912 20.8669 10.0226C20.6686 9.85399 20.4347 9.73293 20.183 9.66862C19.9313 9.60431 19.6683 9.59842 19.4139 9.65141C16.1929 10.3264 12.8679 10.3264 9.64684 9.65141C9.39251 9.59842 9.12951 9.6043 8.87778 9.66862C8.62605 9.73293 8.39219 9.85398 8.19392 10.0226C7.99566 10.1912 7.8382 10.403 7.73347 10.6418C7.62874 10.8807 7.57949 11.1404 7.58946 11.4012L7.59303 11.4944C7.49398 11.5511 7.40011 11.6164 7.31252 11.6897C7.09016 11.8777 6.91362 12.1144 6.79647 12.3817C6.67932 12.6489 6.62467 12.9396 6.63672 13.2314L8.75201 68.3908C8.80955 69.8921 9.44352 71.3127 10.5209 72.3544C11.5982 73.3961 13.0352 73.978 14.5304 73.978C16.0255 73.978 17.4625 73.3961 18.5399 72.3544C19.6172 71.3127 20.2512 69.8921 20.3087 68.3908L22.424 13.2314C22.436 12.9396 22.3814 12.6489 22.2643 12.3817C22.1471 12.1144 21.9706 11.8777 21.7483 11.6897ZM14.5305 73.3739C13.1897 73.3778 11.8999 72.8577 10.9337 71.9235C9.96745 70.9893 9.4006 69.7142 9.35291 68.3676L7.23764 13.2082C7.23091 13.0311 7.25973 12.8545 7.32239 12.6889C7.38505 12.5233 7.48025 12.372 7.60233 12.2442C7.72441 12.1163 7.87087 12.0145 8.03296 11.9447C8.19505 11.875 8.36946 11.8387 8.54579 11.8382C8.63633 11.8382 8.72664 11.8476 8.81529 11.8661C12.5848 12.6563 16.4761 12.6563 20.2456 11.8661C20.4406 11.8255 20.6423 11.83 20.8354 11.8793C21.0284 11.9287 21.2078 12.0215 21.3598 12.1509C21.5118 12.2802 21.6326 12.4426 21.7129 12.6258C21.7932 12.809 21.8309 13.0081 21.8233 13.2082L19.708 68.3676C19.6603 69.7141 19.0935 70.9893 18.1273 71.9235C17.1612 72.8577 15.8714 73.3778 14.5305 73.3739ZM8.58239 10.4837C8.78173 10.3132 9.03495 10.2195 9.29674 10.2194C9.37335 10.2194 9.44976 10.2273 9.52475 10.243C12.8263 10.9351 16.2345 10.9351 19.5361 10.243C19.6922 10.2104 19.8534 10.2119 20.0087 10.2476C20.1641 10.2833 20.31 10.3522 20.4365 10.4496C20.5629 10.5471 20.667 10.6708 20.7416 10.8123C20.8162 10.9538 20.8595 11.1099 20.8686 11.2697C20.6224 11.2222 20.3692 11.2238 20.1235 11.2745C16.4345 12.0478 12.6264 12.0478 8.93747 11.2745C8.69181 11.2237 8.43861 11.2222 8.19234 11.2699C8.20055 11.119 8.23939 10.9715 8.30646 10.8363C8.37354 10.7011 8.46745 10.5811 8.58239 10.4837Z" fill="black"/>
<path d="M18.5852 60.1005L20.0874 16.6086C20.1003 16.3553 20.0552 16.1023 19.9555 15.8692C19.8558 15.6361 19.7043 15.4291 19.5124 15.2642C19.3619 15.1375 19.184 15.0477 18.9929 15.0022C18.8018 14.9566 18.6027 14.9564 18.4115 15.0016C17.8877 15.1282 17.3624 15.2263 16.8362 15.2991C16.5718 15.0257 16.257 14.8067 15.9094 14.6542C15.5286 14.4768 15.1152 14.3811 14.6955 14.3733C14.285 14.367 13.8774 14.4439 13.4971 14.5993C13.1281 14.7407 12.7914 14.9557 12.5073 15.2313C12.4895 15.2485 12.4742 15.2674 12.457 15.285C11.9467 15.2109 11.4375 15.112 10.9294 14.9883C10.7384 14.9424 10.5394 14.9419 10.3481 14.9868C10.1569 15.0317 9.97871 15.1207 9.8277 15.2469C9.63531 15.4112 9.483 15.6177 9.38249 15.8505C9.28198 16.0833 9.23596 16.3361 9.24796 16.5895L10.5978 60.0865C10.6755 62.5925 12.4264 64.5586 14.5835 64.5621H14.59C16.7443 64.5619 18.4988 62.6037 18.5852 60.1005ZM10.2062 15.7163C10.3263 15.6149 10.4776 15.5584 10.6345 15.5566C10.6858 15.5567 10.7369 15.5629 10.7867 15.5751C11.2016 15.677 11.6176 15.7608 12.0342 15.8301C11.7665 16.2725 11.6204 16.7783 11.6111 17.296C11.6109 17.3067 11.6122 17.3172 11.6121 17.3279C11.6118 17.3389 11.6101 17.3497 11.6099 17.3607L11.5399 21.1505C11.5325 21.5502 11.6035 21.9475 11.7489 22.3197C11.8943 22.6918 12.1112 23.0316 12.3873 23.3195C12.6633 23.6074 12.9931 23.8378 13.3578 23.9977C13.7225 24.1575 14.115 24.2436 14.5128 24.251C14.5321 24.2514 14.5513 24.2514 14.5707 24.2514C15.3642 24.251 16.1259 23.9378 16.6921 23.3791C17.2582 22.8204 17.5836 22.0608 17.5984 21.2635L17.6685 17.4737C17.6687 17.4626 17.6674 17.4517 17.6675 17.4406C17.6678 17.43 17.6694 17.4197 17.6696 17.409C17.6802 16.8597 17.5365 16.3185 17.2548 15.8475C17.688 15.7783 18.1206 15.6932 18.5521 15.5889C18.6532 15.5653 18.7583 15.566 18.8591 15.5909C18.9599 15.6158 19.0534 15.6641 19.1322 15.732C19.2523 15.838 19.3467 15.9702 19.4082 16.1186C19.4696 16.2669 19.4964 16.4274 19.4866 16.5877L17.9843 60.0797C17.9092 62.2556 16.4188 63.9582 14.59 63.958H14.5848C12.7537 63.9548 11.2664 62.2462 11.1987 60.0677L9.84887 16.5706C9.83965 16.4103 9.86706 16.2499 9.92901 16.1019C9.99095 15.9538 10.0858 15.8219 10.2062 15.7163ZM14.538 15.0121C14.5527 15.0121 14.5675 15.0121 14.5824 15.0125L14.7848 15.0162C15.3977 15.0282 15.9812 15.2828 16.4084 15.7246C16.8357 16.1664 17.0721 16.7598 17.0665 17.3758C17.0609 17.9918 16.8135 18.5807 16.3783 19.0146C15.943 19.4484 15.355 19.6921 14.7419 19.6928C14.7274 19.6928 14.7129 19.6928 14.6983 19.6924L14.4959 19.6886C13.8829 19.6768 13.2994 19.4223 12.8721 18.9806C12.4448 18.5388 12.2082 17.9455 12.2137 17.3294C12.2193 16.7134 12.4665 16.1244 12.9017 15.6905C13.3369 15.2566 13.9249 15.0128 14.538 15.0121ZM12.1795 19.0857C12.445 19.452 12.7913 19.7516 13.1912 19.961C13.5911 20.1704 14.0339 20.284 14.4847 20.2928L14.6873 20.2965C14.7057 20.2967 14.7237 20.2969 14.7421 20.2969C15.1837 20.2964 15.6195 20.1954 16.0167 20.0014C16.4139 19.8074 16.7622 19.5255 17.0355 19.1768L16.9971 21.2522C16.9855 21.8913 16.7247 22.5002 16.2708 22.9481C15.817 23.396 15.2064 23.647 14.5703 23.6472C14.5548 23.6472 14.5394 23.6472 14.5241 23.6468C14.2052 23.6409 13.8907 23.572 13.5983 23.4439C13.306 23.3158 13.0416 23.1311 12.8203 22.9004C12.5991 22.6696 12.4252 22.3973 12.3086 22.099C12.1921 21.8007 12.1351 21.4823 12.1411 21.1619L12.1795 19.0857Z" fill="black"/>
<path d="M13.1913 45.9858C13.6841 48.6554 14.2783 48.9697 14.684 48.9697H14.6885C16.2513 48.9606 16.6288 42.6334 16.61 39.2891C16.6197 37.0532 16.4416 34.8205 16.0775 32.6147C15.5847 29.9451 14.9905 29.6309 14.585 29.6309H14.5804C14.1745 29.633 13.5813 29.9465 13.1167 32.6314C12.7772 34.8412 12.624 37.0758 12.6587 39.3115C12.649 41.5474 12.8271 43.7801 13.1913 45.9858ZM14.584 30.2351C14.6777 30.2351 15.1046 30.657 15.4862 32.7249C15.8439 34.8955 16.0187 37.0925 16.0088 39.2926C16.0433 41.4924 15.8931 43.6911 15.5596 45.8655C15.2009 47.9392 14.7785 48.365 14.685 48.3655C14.5912 48.3655 14.1642 47.9436 13.7825 45.8755C13.4248 43.705 13.25 41.508 13.26 39.3079C13.2254 37.1081 13.3757 34.9093 13.7091 32.7349C14.0679 30.6614 14.4904 30.2357 14.584 30.2351Z" fill="black"/>
<path d="M33.926 9.15234C30.598 9.15234 27.8906 11.6545 27.8906 14.7302V68.4004C27.8906 71.4758 30.598 73.978 33.926 73.978C37.254 73.978 39.9615 71.4758 39.9615 68.4004V14.7302C39.9615 11.6545 37.254 9.15234 33.926 9.15234ZM39.3468 68.4004C39.2851 69.7856 38.6803 71.09 37.6647 72.0287C36.649 72.9673 35.3049 73.4639 33.926 73.4099C32.5472 73.4639 31.2031 72.9673 30.1874 72.0287C29.1717 71.09 28.567 69.7856 28.5053 68.4004V14.7302C28.567 13.3449 29.1717 12.0404 30.1874 11.1018C31.2031 10.1631 32.5472 9.66649 33.926 9.72047C35.3049 9.66649 36.649 10.1631 37.6647 11.1018C38.6804 12.0404 39.2851 13.3449 39.3468 14.7302L39.3468 68.4004Z" fill="black"/>
<path d="M36.2887 14.3559C36.1515 14.3675 36.0206 14.4189 35.9121 14.504C35.8035 14.5891 35.7219 14.7041 35.6773 14.8349C35.6327 14.9658 35.627 15.1069 35.6609 15.241C35.6947 15.3751 35.7667 15.4964 35.8681 15.59C35.9694 15.6837 36.0957 15.7456 36.2315 15.7683C36.3673 15.7911 36.5067 15.7736 36.6328 15.718C36.7588 15.6624 36.8661 15.5711 36.9413 15.4552C37.0166 15.3394 37.0567 15.2041 37.0567 15.0657C37.0482 14.8694 36.9626 14.6844 36.8186 14.5514C36.6747 14.4184 36.4841 14.3481 36.2887 14.3559Z" fill="black"/>
<path d="M36.2887 18.3292C36.1515 18.3408 36.0206 18.3922 35.9121 18.4773C35.8035 18.5623 35.7219 18.6773 35.6773 18.8082C35.6327 18.9391 35.627 19.0802 35.6609 19.2143C35.6947 19.3483 35.7667 19.4696 35.8681 19.5633C35.9694 19.6569 36.0957 19.7189 36.2315 19.7416C36.3673 19.7643 36.5067 19.7468 36.6328 19.6912C36.7588 19.6356 36.8661 19.5443 36.9413 19.4285C37.0166 19.3127 37.0567 19.1773 37.0567 19.039C37.0482 18.8427 36.9626 18.6577 36.8186 18.5247C36.6747 18.3916 36.4841 18.3213 36.2887 18.3292Z" fill="black"/>
<path d="M36.2887 22.3026C36.1515 22.3142 36.0206 22.3656 35.9121 22.4507C35.8035 22.5357 35.7219 22.6507 35.6773 22.7816C35.6327 22.9125 35.627 23.0536 35.6609 23.1876C35.6947 23.3217 35.7667 23.443 35.8681 23.5366C35.9694 23.6303 36.0957 23.6923 36.2315 23.715C36.3673 23.7377 36.5067 23.7202 36.6328 23.6646C36.7588 23.609 36.8661 23.5177 36.9413 23.4019C37.0166 23.2861 37.0567 23.1507 37.0567 23.0124C37.0482 22.816 36.9626 22.6311 36.8186 22.498C36.6747 22.365 36.4841 22.2947 36.2887 22.3026Z" fill="black"/>
<path d="M36.2887 26.4712C36.1515 26.4827 36.0206 26.5342 35.9121 26.6192C35.8035 26.7043 35.7219 26.8193 35.6773 26.9502C35.6327 27.081 35.627 27.2221 35.6609 27.3562C35.6947 27.4903 35.7667 27.6116 35.8681 27.7052C35.9694 27.7989 36.0957 27.8608 36.2315 27.8836C36.3673 27.9063 36.5067 27.8888 36.6328 27.8332C36.7588 27.7776 36.866 27.6863 36.9413 27.5705C37.0166 27.4546 37.0567 27.3193 37.0567 27.181C37.0482 26.9846 36.9626 26.7997 36.8186 26.6666C36.6747 26.5336 36.4841 26.4633 36.2887 26.4712Z" fill="black"/>
<path d="M33.6186 16.4448C33.4814 16.4564 33.3505 16.5078 33.2419 16.5929C33.1334 16.6779 33.0518 16.7929 33.0072 16.9238C32.9626 17.0547 32.9569 17.1958 32.9907 17.3299C33.0246 17.464 33.0966 17.5852 33.1979 17.6789C33.2993 17.7725 33.4256 17.8345 33.5614 17.8572C33.6972 17.8799 33.8366 17.8624 33.9627 17.8068C34.0887 17.7512 34.1959 17.6599 34.2712 17.5441C34.3465 17.4283 34.3866 17.2929 34.3866 17.1546C34.3781 16.9582 34.2925 16.7733 34.1485 16.6403C34.0046 16.5072 33.814 16.4369 33.6186 16.4448Z" fill="black"/>
<path d="M33.6186 20.4182C33.4814 20.4298 33.3505 20.4812 33.2419 20.5663C33.1334 20.6513 33.0518 20.7663 33.0072 20.8972C32.9626 21.0281 32.9569 21.1692 32.9908 21.3033C33.0246 21.4373 33.0966 21.5586 33.198 21.6523C33.2993 21.7459 33.4256 21.8079 33.5614 21.8306C33.6972 21.8533 33.8366 21.8358 33.9627 21.7802C34.0887 21.7246 34.1959 21.6333 34.2712 21.5175C34.3465 21.4017 34.3866 21.2663 34.3866 21.128C34.3781 20.9316 34.2925 20.7467 34.1485 20.6136C34.0046 20.4806 33.814 20.4103 33.6186 20.4182Z" fill="black"/>
<path d="M33.6186 24.3916C33.4814 24.4031 33.3505 24.4546 33.2419 24.5397C33.1334 24.6247 33.0518 24.7397 33.0072 24.8706C32.9626 25.0015 32.9569 25.1426 32.9907 25.2766C33.0246 25.4107 33.0966 25.532 33.1979 25.6256C33.2993 25.7193 33.4255 25.7813 33.5613 25.804C33.6971 25.8267 33.8366 25.8092 33.9627 25.7536C34.0887 25.698 34.1959 25.6067 34.2712 25.4909C34.3465 25.3751 34.3866 25.2397 34.3866 25.1014C34.3781 24.905 34.2925 24.7201 34.1485 24.587C34.0046 24.454 33.814 24.3837 33.6186 24.3916Z" fill="black"/>
</svg>
